/* XPM */
static char *axi8c_17pht[] = {
/* columns rows colors chars-per-pixel */
"64 64 247 2 ",
"   c #301511",
".  c #3C241C",
"X  c #3C2922",
"o  c #561B0D",
"O  c #5C1E14",
"+  c #551C11",
"@  c #4D190F",
"#  c #641E13",
"$  c #691E15",
"%  c #54210E",
"&  c #4C2A1D",
"*  c #45261C",
"=  c #5C2314",
"-  c #582819",
";  c #642215",
":  c #692316",
">  c #662519",
",  c #6C261A",
"<  c #642C1C",
"1  c #6C291C",
"2  c #632B16",
"3  c #712A1C",
"4  c #66331D",
"5  c #432B23",
"6  c #4A2D23",
"7  c #482E28",
"8  c #542D22",
"9  c #5C2C21",
"0  c #4C342B",
"q  c #4A3428",
"w  c #533225",
"e  c #52362C",
"r  c #5A382A",
"t  c #583C33",
"y  c #652D21",
"u  c #692E23",
"i  c #643425",
"p  c #6B3323",
"a  c #653A25",
"s  c #6A3A25",
"d  c #633529",
"f  c #6B352A",
"g  c #643C2C",
"h  c #6B3C2C",
"j  c #753928",
"k  c #643E31",
"l  c #6A3E32",
"z  c #7A3F30",
"x  c #5D4335",
"c  c #5B473B",
"v  c #6C422C",
"b  c #67422D",
"n  c #73432D",
"m  c #7A422E",
"M  c #644233",
"N  c #6C4434",
"B  c #6C463A",
"V  c #634B3C",
"C  c #6D4B3B",
"Z  c #684838",
"A  c #744433",
"S  c #7B4433",
"D  c #744935",
"F  c #7B4A35",
"G  c #72463D",
"H  c #734B3C",
"J  c #7B4C3A",
"K  c #6C513D",
"L  c #72513D",
"P  c #7C523D",
"I  c #795036",
"U  c #5C4B43",
"Y  c #634E41",
"T  c #6B4E42",
"R  c #744A41",
"E  c #794D42",
"W  c #655144",
"Q  c #6C5444",
"!  c #6B5749",
"~  c #745342",
"^  c #7A5443",
"/  c #7C5A45",
"(  c #7A5649",
")  c #745B4B",
"_  c #7B5B4B",
"`  c #745847",
"'  c #785D50",
"]  c #6D5C51",
"[  c #7D624E",
"{  c #74614E",
"}  c #736253",
"|  c #7C6353",
" . c #7C6955",
".. c #7B6B5B",
"X. c #6E6051",
"o. c #7E7366",
"O. c #834C3A",
"+. c #844936",
"@. c #82543D",
"#. c #8B523D",
"$. c #865A3E",
"%. c #8D523A",
"&. c #835542",
"*. c #8B5441",
"=. c #855B44",
"-. c #8B5C45",
";. c #835D4A",
":. c #8C5E4A",
">. c #955D4A",
",. c #935D45",
"<. c #835E51",
"1. c #854F41",
"2. c #8C6146",
"3. c #85624C",
"4. c #8C634B",
"5. c #8D694D",
"6. c #846045",
"7. c #93644C",
"8. c #9A644C",
"9. c #956A4D",
"0. c #98664B",
"q. c #846453",
"w. c #8C6553",
"e. c #846A55",
"r. c #8C6A53",
"t. c #836B5B",
"y. c #8B6C5A",
"u. c #856659",
"i. c #926653",
"p. c #936C54",
"a. c #9B6C54",
"s. c #936C5A",
"d. c #9B6955",
"f. c #85725C",
"g. c #8C725C",
"h. c #8C7057",
"j. c #957055",
"k. c #9B7255",
"l. c #94745C",
"z. c #9B745B",
"x. c #9C795D",
"c. c #967959",
"v. c #A26D55",
"b. c #A2745B",
"n. c #A37A5D",
"m. c #A6785A",
"M. c #B47D5F",
"N. c #846E61",
"B. c #857363",
"V. c #8C7463",
"C. c #8E7966",
"Z. c #85796C",
"A. c #8B7B6A",
"S. c #867769",
"D. c #947562",
"F. c #9B7662",
"G. c #947B63",
"H. c #9B7B64",
"J. c #947C6A",
"K. c #9B7D6B",
"L. c #917768",
"P. c #877C71",
"I. c #A37C64",
"U. c #AA7D61",
"Y. c #A27F69",
"T. c #A57761",
"R. c #B57F66",
"E. c #A5815E",
"W. c #9C836C",
"Q. c #9A836A",
"!. c #8D8475",
"~. c #9C8471",
"^. c #9C8B73",
"/. c #978877",
"(. c #988C77",
"). c #A58265",
"_. c #AB8465",
"`. c #AC8966",
"'. c #A4846B",
"]. c #AA856B",
"[. c #A4896D",
"{. c #AC8B6C",
"}. c #A78865",
"|. c #B28569",
" X c #B28C6D",
".X c #B78667",
"XX c #B5906F",
"oX c #A48571",
"OX c #A48B73",
"+X c #AC8D72",
"@X c #A78975",
"#X c #B38D70",
"$X c #B58F76",
"%X c #AC9275",
"&X c #A4937C",
"*X c #AC947B",
"=X c #A8957A",
"-X c #B39374",
";X c #B3957A",
":X c #B49A7D",
">X c #BA9878",
",X c #AF906B",
"<X c #BEA17D",
"1X c #C39C7B",
"2X c #C4A27E",
"3X c #AC9C82",
"4X c #A89882",
"5X c #B49D83",
"6X c #BA9E83",
"7X c #B69780",
"8X c #B3A185",
"9X c #BCA185",
"0X c #B8A68B",
"qX c #BCAC91",
"wX c #B7AA93",
"eX c #BDB195",
"rX c #BDB49A",
"tX c #ADA085",
"yX c #AEA492",
"uX c #C4A585",
"iX c #C2AA8D",
"pX c #C9A887",
"aX c #C3AD92",
"sX c #CAAE92",
"dX c #C4B295",
"fX c #C3B59B",
"gX c #C5BA9D",
"hX c #CBBA9B",
"jX c #CBB597",
"kX c #D4B998",
"lX c #D3AE88",
"zX c #CCBEA2",
"xX c #C5BBA0",
"cX c #D2BEA1",
"vX c #C09E81",
"bX c #D6C19E",
"nX c #CAC2A7",
"mX c #D4C3A5",
"MX c #D7C8AA",
"NX c #DCD2B6",
"BX c #D7CEB1",
"VX c #E5D7B7",
"CX c #F1E1BE",
"ZX c #E4DDC3",
"AX c #F4EBCA",
"SX c #EDE5C7",
"DX c #DDD8C2",
/* pixels */
"G :.p.9.9.9.5.w.7.4.i.4.4.7.-.5.7.7.i.4.7.i.7.i.7.i.i.7.i.i.2.d.a.-.i.i.9.7.5.i.7.7.p.7.4.9.7.i.5.-.4.7.4.7.5.7.4.7.5.7.i.r.i.s ",
"G |.l.;.P 3.z.&.p.s.&.z.5.i.z.i.4.P 3.G./ &.=.5.P 6.5.I ;.-.r.r.r.r.4.-.I 5.6.@.6.6.&./ G.4.I 4.5.z.p.4.n.&.r.s.@.a.4./ =.r.XXS ",
"G {.~ * W e.l.Y.b.F - &.m.,XE.A 2 % ` f.V.+ @.0.r.r.5.a.+ ( B.[ [ B.q.@ 2.9.r.r.9.,.o q.o.3.% > s E.{.m.-.w h a._.l.p.! 5 x -XS ",
"G {.H _ g.m.v ` I.~ M N F E.4 7.m.N ) f.Z.u.D F.Q.!.^.@._ o.P.e.e.S.S._ O.Q.!.!.K.F | A.S.[ Z a.a.4 k.-.h Z R F.t.r m.h.y.g -Xm ",
"J ].N i.uXZ e./ *.;.J _ H 8.n.>X6.j a b l.z.O w.f.| J.< +.oXD a i n W.:.= l.e. .D.O :.H.n a s =.}. X>.J _ J ;.&.;.4.C +X_.d {.F ",
"G +Xu.-.9.O.*.7.B O f f -.2.z.P - p j 2 F a.4 p ;.y.n < *.7.4 p 4 4 &.8.< h 5.p.s < 7.=.- j j % I k.5.:.v j = f 5.-.+.2.7.` ;Xm ",
"R _.^ s r & ;.^ + ( :X].oXD.l.).*XW.H.].oXF.OX+X'.g.x.Q.+Xl.~.H.F.~.G.'.[.F.g.H.+X+XF.'.[.'.F.;X'.l.s.'.[.>Xy.@ A u.w r h B {.S ",
"G `.^ a.J B _ f 1 q.+XG.w.F b.=.D.3.k.` U ;.%X4.6 y.[ 0 ^ 0 g 7 7 a 0 ( e ! s.w L ;Xw.Y Q z.=.G./ b.@.=.K.H.K.> f ~ E v v.H {.S ",
"H {.~ &.XX7.N a.*.u.F.y |.i.I.=.d y./ t ` 5 w * 7 Z g.;X$X*XV 0 7 x W.;X;XK.Z 0 . r . Q c K l.M D [.>. XA ;.J.F v.D =. X9.N -XS ",
"E _.B ;Xx.I 0.-X=.u.s.O.R.;.;XT.=.0 X   6 X.c ;.t.t.Y.NX*X].y.~.=Xe.).+XBX*Xu.y.q.M ] r   X q ^ 8.9X;.U.,.&.D.O. Xz.I 5.<XZ _.S ",
"B #X^ *.m n 2X5.v q.3Xy.= A s.( ;XMXfXfX! V Y.mXMX*XzXA.' xXMXmXBXzXmXf. .mX%XMXcX;XW Y 0XgXmXiX=.i.E = <.OXJ.a 2.>X2.4 :.Z :XA ",
"G `.L p v 4 l.d 2 y.I.@.=.^ 6 . ZXpX7.OX..T s.'.H.).VXqX].ZX} L.*Xc ZX;X:XVX[.H.Y.G.~ ) OXp.%XAXt * C -.&.l.G.p 4 h.n 4 f s %Xm ",
"R `.B q.L.f.^ C % u.z.Q } 5 & 6 A.zX} Y s.z.k.=.F F J VXpXz.hX6XOXBXF.XXCX-.F A *.s.z.l.T Y fX&X0 & * ! ) w.A.@ M ~ e.A.t.g {.D ",
"B +X_ d ../.C.H.h e.Y.' t y.n.M ! _ Q ~ XX+Xj.pX5.-X@X/.0X/.mX4XG.NX^.qX&X].6X6.uXY.).1X;.Y ' ~ V 4.).e _ s.K.p n.A.Q.B.l B ;XS ",
"R `.N h 5.;.E +.S q.OX>Xg c _ ( ;X6Xz.F 1XXX&.&.l.aX;X~ p.-Xa.+.z 8.-XH.Q [.iX).@.&._.pX=.:.9X;Xu.Q Q & ;XOXV.z +.H | 4.O.9 {.S ",
"G  XL 2.z.G.e.A O y.z.& 6 * N *XjXcXI.a I.b.j.-.-.b.[ 1X1X*.1 : : > +.R.pX3.z.7.=.i.z.I.N ,.bXdXuXH 8 5 8 ;.K.= s 3.Q.l.j.M -Xm ",
"G #X~ N oX!.t.j.F G.V.` w.5 v 9X%XW.iX=.@.7XBXs.4.*X[.$X3 $ , 1 , , $ $ U.-XOXj.:.zXsX-.^ 9X%XW.iX^ 5 ~ q.) OXD s.h.o.^./ g ;Xm ",
"E |.Z 7.j.l.;.i o q.y.V x F.0XwXrX{ eXmX_.hX(.^ lXm.8.,., , , , , , 1 , ,.2.b.lXp.B.zX[.jXmX{ 3XxX6X XM Q ' J.O < ^ F.p.z.g {.+.",
"G  X( 2 w.| ) >.#.y.t.t C +XiXQ.gXz.8XMXU.5XfXn.0.> $ : , , , , , , , , $ $ # #.T.8XrXn.hXaXl.qX%X%X0XZ M W K.D 8._ | w.4 l :Xn ",
"R _.H T N.(.C.g.< u.C. .) 0 ^ ].hXnX=XVX8X4XiX>.: , , , , , , , 1 , , , 1 1 , ; *.>X8X=XVX8XgXhX:XP M c V.| ~.= p.D./.P.) b {.S ",
"H {.H ( y./ L M % t.t.* e 5 D sXdXzX&XC.D.v.p 9 , , , , : , , ; ; , , , , , , 1 u i 8.x.V.^.fXfXkX;.& 7 & Q L.% g I L h.<.l %XS ",
"G {.( < y h [.s < l.u.* q {.VXMXY /.] F.+.# , 1 , , , , , , # 2.9.O , , , , , 1 1 > $ j b.] /.Y qXCXuXt * Q oXp 4 Q.@.= f N ;XA ",
"E _.N z.@.v <Xn.A r.C.w $XMXmX^ ;X4XT v.# , 1 , , , : , , ; @.+X-X$.: , , , , , , , , # ,.<.A.sXL jXBX9XM ` ~.a c.>X&.v I.g ].D ",
"R {.` `.}.$.@.`.6.u.x.[.AXfXjXk.I.cX] i.j , , , , , , 3 > 6.9X[.'.5X5.: , , , , , , , , i.! xX$X2.sXqXAX9Xj.V.P .X2.I E.-X~ -Xm ",
"H {.G *._.;.H -.+.q.].l.jX_.VX4X5XpXY.u.@.: 1 , , , , , 1 j g.3X:Xg.m : : , , , , 1 : +.u.l.pXvX&XNX XiXOXx.L.z 7.C / n.a.d %XS ",
"R _.~ 4.h k ' f # q.%XdX:XqX(.z.|.+.j > , , , , , , : 1 < i L _ { L g 4 4 : : , , , 1 : y j z T._.J.sX=XjX*XL.O 4 / C 9 7.D {.S ",
"G  Xw.f N - ;.3.@ ' %X2.=.w.F..XO.# : , , , 1 > u - g ..Q h.2XkXbXpXQ.Q  .L - p > 1 , , $ , # z M.].e.2.-.].V.@ J j.- M h ~ :XA ",
"E _.L 4.8.7.i.I.H { 6XiX#XL.p..X, , 3 , , , > x e.^.=XpX_.W.:XiXiX>X~.x.uX:XW.B.C < , , , , , $ v.Y.[ -X9X9XC.k E.p.>.8.i.H `.S ",
"G #X_ k M '.c.G.6.w.0X[.l.DX..I.>.m : 1 , : f X.3XG.%X XoXnX>X2.2.{.nX4XE.:Xf.6X..M $ , , : j -.U.{ nX*XG.0XD.J W.g.OXC k B ;XA ",
"G %X_ g M '.l.K.3.3.:XkX&X! %X..z.j : 1 , < _ Q.kXJ.e.G.&XhX[.[ e.c.dXtXx.j.h.kXoX .9 , 1 , : d.N.+X| A.mX5XV.P '.h.{.R k H :XS ",
"E _.~ i.>.-.i.n.N | :XdXNXD.5.xXt.b., # : x -XI.}.%X+X).qXt.6 A A w ! 0X{.'.:X).E.#XQ ; > # v.e.gXx.w.nXmX-XJ.w n.p.-.,.i.L ].S ",
"B $X;.d N & e.r.p | ;X=.'.qXzX(.t d.1 9.n.& t /.rXdX9.r.&X. P 5.3.2.* Q.F.-.qXxX4XV & i.x.4 7.c o.nXeX*X-.].J.i 3.r.8 M s C 5Xm ",
"H #X;.h G - 3.r.i u.>X=.+XeXrX4Xc v.2 7.z.- c Q.rXqXk.p.4X5 P 4.;.=.* !.x.2.0XdX&XY & 5.k.2 8.Y Z.xXqX6X-.+XJ.9 3.r.9 N A Z ;XS ",
"R _.~ :.2.9.r.U.D  .;XmXNX[ 4.gXB.d., : ; x %X_._.*X[.'.qXf.w N n w ) qX%X).:X_.I.$X! ; > # >.e.rXH.~ zXNX;XC.g E.y.5.8.7.H _.S ",
"B ;Xq.t x ).l.H.;.[ 3XiX/...*X} z.p : 1 1 < ` G.kXG.e.F.=XhX%X .e.Q.hXtXl.h.t.kX~.| y 3 1 , , d. .~.A.S.aX3XV.P Y.h.[.C t H 8Xm ",
"R  X^ M N ].l.K.3.3.8X*XH.NX'  X*.z : 1 , : i X.:XG.%X-X~.xX>X2.2.`.gX*X_.<Xg.5X..l $ 3 1 : j &.R.| nX;X'.9XV.1.].h.[.P M B -XS ",
"R _.( 7.>.*.w.n.N _ 7X6X{.y.p..X1 : , , , , 1 g  .Q.%XiX).W.5XpXiX6X~.x.pX:XQ.f.B < , $ 1 1 , $ v.Y._  X;X>XV.w n.i.#.,.i.~ {.S ",
"R @Xq.f M - q./ @ _ %X9.=.l.K..X#.$ : , , , : : y - a } Q e.>XkXkXuXG.~ { Z - y > 1 , , , : # O..X'.V.6.5.{.V.@ D y.& M g E 7XS ",
"R _.H 9.l N ' f ; q.%XaX0XiX&Xl. XO.+.1 u , , , , , : 2 1 p K ) { L p < < : 1 1 , , 1 , y z O.M.I.~.qX3XjX%XJ.; p ( R i a.H _.F ",
"H {.H #. X:.D 7.#.q.oXl.hX|.VX0X6XkXH.y.#.: , , , , , 3 > z l.6X:Xc.S : , 1 , : : , : +.y.s.sXuX&XVX-XsX'.x.J.S a.D ;._.0.g %XS ",
"H [.~ +X}.@.-. X-.q.F.).AXgXiX2.n.hX] i.3 , , , , , , , : =.9X[.W.9X2.2 , , , , , , , , >.! wX#X@.iXrXAX5Xs.V.O. X0.I c.>XL %XS ",
"H |.N 5.F n 2Xj.h y.B.& ).MXBX5.*X&XT b.$ 1 , , , , , , , # F %X-X$.= , , , , , , , , ; >.| S.aX_ bXNX{.w ! oXa j.>X2.s k.d {.F ",
"G {.( p 4 s H.a 2 L.u.* 7 H.MXBXY (.} s.+., : u , , , , 1 1 O *.2.= , 3 , , , , 1 : : z D.] (.V dXVX+Xe & ~ ~.i 4 l.F < f N :Xm ",
"E {.B _ C. .~ M % q.t.& e * b uXmXxX4X/.H.U.l u , , , , , , , $ ; , , , , , , , u h b.Y.Q.&XhXnXkXH 5 7 8 Q J.% b K { g.u.M {.S ",
"H {.R B ../.C.x.p r.G.e.{ x 3.'.jXzX*XVX5X&XjX8., u , , , , , , , : , , , , , : *.pXtX&XVX5XhXdX;X;.Q V G. .W.- l.C.!.Z.T M {.m ",
"G  X` 4 7.| ~ #.+.r.u.0 x ;XsXW.gX3.0XcXU.qXwXz.T., $ : , , , , , 3 , , , : : 8.U.&XhXn.hXfXw.qX*X;XjXM e T J.S %.~ q.4.j l ;Xm ",
"G |.N 5.l.G.e.s + u.f.` V p.:XaXrX| rXzXI.jX4XL pX|.v.8.1 , 1 , , , , : >.a.U.pXw.A.zXY.iXnXt.tXxX:XH.Z ) e.K.= p ;.Q.j.z.a {.S ",
"H  X~ N oXP.t.l.J H.f.C 3.. M 9X+X[.uXJ &.;XmXD.=.+X'.1Xp $ , , , , : , |.%X[.y.4.hXiX2.D ;X-XW.iXL . R ` ! oXD j.f.o.^.P M -XA ",
"G  XC 5.z.G.e.f O u.F.r 5 * N +XhXmXY.p _.b.9.E 7.n._ >X1X,.1 , , , -..X2X;.z.p.&.4.v._.D -.mXhX6XR w . d q.K.O p _ J.l.k.v ,XF ",
"G `.B p 4.q.( #.O.<.+XvXg C u.~ ].*Xs.J 1X-X&.2.j.dX6XQ y.:XU.1.S b.>XG.K *XdXK.:./ _.pX=.;.%X+X;.` ' 8 >XOXV.S ,.~ | 2.m 9 {.F ",
"G #X=.k t./.C.G.p q.Y.Q t w.k.x ! | Y ~ XX+XH.lX5.].F.=XfXJ.MXtXJ.VXG.qX8XD.-X-.uX_.'.>X;.Y | Q V =.F.e ! y.~.- j.C./.S.C B >Xn ",
"R ].B _ B.e.L Z % e.s.~ ..5 * * (.cX| U w.p.r.J D F :.VXuX'.aX3XOXhXI.1XSXd.S A J 4.s.r.Y W dX0X0 * * } / :.L.% g ~ [ B.u.g {.S ",
"R ].^ y u s H.a 2 y.'.&.O._ 7 5 ZXlXk.0X..Z D.;X+X].ZX4XF.SX} Q.tXc SX%XQ.ZX;X+X*XoXR { tXn.-XAXx * ^ *.P z.K.p 4 x.I 2 f l -XS ",
"R  X~ :.F n uXk.N q.*Xy.< A F.4.].gXeX3XW Q F.hXmX*XfX~. .qXMXMXNXMXjXf.B.zXOXmXhX].! c &XfXfX6X=.F.J = q.OXJ.p j.>X2.4 d.N -XA ",
"E _.D -XE.P -.-X,.u.p.z  X:.*Xm.^ q     q ! t ~ _ ' H.VX:X+X[ D./.) oX*XNX-X' ) ( t ! t     5 ^ 8.5X<.|.*.^ D.^  X9.I c.>XZ ].F ",
"B +X~ @. X-.D 7.O.e.F.f ].>.'.*.g l.e.x ` 6 g * 7 T y.W.+XW.x 7 . t D.+XW.D.R e . b * T V / F.N F _.>.].A 4.J.D 0.D ;._.0.l ;XA ",
"H _.~ 9.A l [ i ; w.@XW.r.F v.<.W.3.a.[ W q.7Xl.w r.| e _ e N q 0 N e ` t ` g.e ;.5Xs.! ! b.=.W.w.v.@._ W.'.Q.; p ` E a d.H {.S ",
"R ].^ s k & ;.=.+ L ;XY.].H.F.H.+XY.H.'.].F.Y.].OXV.F.'.%Xc.W.E.H.'.F.[.].H.g.oXOX'.F.'.oXH.H.+XK.l.z.'.).-Xq.@ J q.& g g G {.S ",
"R |.q.4.z.1.-.7.H O u d =.-.n.&.% < s % F d.> i ;.p.N ; O.9.= 2 - - -.>.; h w.4.i ; >.-.= 4 p + H n.4.-.g f O d 7.:.#.a.i.^ %XS ",
"R ].N 8.6XZ 3.^ =.u.J q.H 8.k.>Xj.A h A G.l.; y.B.} ~.u F ^.^ h h L Q.:.- J.....K.> :.K.L h h 9.,X_.8.F ' ^ y.=.^ 3.B oX|.d {.S ",
"R  X~ ~ t._.v } _.H M d *._.4 $.8.l _ B.P.| J z.^./.Q.=.( B.P.t.y.S.A.( @.Q.^.!.H.*._ Z.S.e.l ,.-.a c.8.f k B b.g.r _.f.| g -XS ",
"R ].R 5 U ;.x.I.a.J 8 -.k.].`.F 2 = L o.y.+ +.9.6.6.2.9.o F V.) ` B._ o $.9.6.6.9.$.@ ;.o.[ = < j }._.m.9.8 A d.n.x.4.Y 7 k +XS ",
"G .XH.w.-.r.k.&.p.z.6.m.5.i.j.9.p.=.4.F.-.4.3.5.=.4.p.P w.w.r.s.j.5.w.i.P i.5.=.4.3.7.=.F.w.@.r.p.a.9.5.x.-.p.z.=.k.w.-.4.l.-XA ",
"E <.s.w.i.w.w.i.w.w.i.w.w.i.4.r.w.i.p.<.i.p.w.i.p.w.p.i.s.w.i.s.s.:.s.w.p.i.w.i.i.w.w.i.w.w.s.w.w.4.w.w.w.i.w.w.i.w.w.s.w.w.y.z "
};
