/* XPM */
static char *ahhve_ci9ly[] = {
/* columns rows colors chars-per-pixel */
"64 64 243 2 ",
"   c #437D7D",
".  c #BE3B29",
"X  c #B34931",
"o  c #CE5131",
"O  c #D5703C",
"+  c #B87947",
"@  c #3C8D4C",
"#  c #378948",
"$  c #3E914C",
"%  c #3E9546",
"&  c #3F8E51",
"*  c #428A4D",
"=  c #42934E",
"-  c #459A4C",
";  c #499D4E",
":  c #429A47",
">  c #448B51",
",  c #4B8A54",
"<  c #528D5B",
"1  c #449551",
"2  c #469851",
"3  c #4A9C51",
"4  c #4C9759",
"5  c #529D5D",
"6  c #549757",
"7  c #769A49",
"8  c #4EA34E",
"9  c #49A246",
"0  c #50A54F",
"q  c #54A94B",
"w  c #5AAA4B",
"e  c #4EA152",
"r  c #52A552",
"t  c #55A953",
"y  c #5BAC54",
"u  c #55A25B",
"i  c #59A55D",
"p  c #5CAB5B",
"a  c #5CA756",
"s  c #62AF54",
"d  c #61AC5D",
"f  c #62A75C",
"g  c #7BA45A",
"h  c #66B155",
"j  c #6AB357",
"k  c #6DB558",
"l  c #64B15C",
"z  c #72B759",
"x  c #76B85B",
"c  c #7BBB5D",
"v  c #70B557",
"b  c #7EA549",
"n  c #559C62",
"m  c #569061",
"M  c #4F8C6D",
"N  c #5EA862",
"B  c #59A263",
"V  c #5CA279",
"C  c #63AC64",
"Z  c #66AB6B",
"A  c #69AB6C",
"S  c #6CB565",
"D  c #6AB269",
"F  c #7FBD60",
"G  c #72B76A",
"H  c #6CAC73",
"J  c #65A273",
"K  c #71AD78",
"L  c #73B474",
"P  c #76B37A",
"I  c #7AB67B",
"U  c #7BB978",
"Y  c #6FB273",
"T  c #7F8E7D",
"R  c #DFB53D",
"E  c #EEC83C",
"W  c #B89658",
"Q  c #AF904F",
"!  c #82BE5E",
"~  c #89B956",
"^  c #94AF5C",
"/  c #A2A75C",
"(  c #B5AB55",
")  c #979F65",
"_  c #83BE62",
"`  c #89BE63",
"'  c #8CB469",
"]  c #99B665",
"[  c #83BB7C",
"{  c #96A96D",
"}  c #A6B869",
"|  c #A9BA74",
" . c #AFB365",
".. c #CA934A",
"X. c #E6914C",
"o. c #CDAB4F",
"O. c #ECA956",
"+. c #C3AF63",
"@. c #96C65B",
"#. c #8BC159",
"$. c #86C063",
"%. c #8AC165",
"&. c #8EC469",
"*. c #8DCA6D",
"=. c #92C66D",
"-. c #97C968",
";. c #94C673",
":. c #95C972",
">. c #99CA75",
",. c #9CCB7B",
"<. c #9AC676",
"1. c #92CB76",
"2. c #A2CC62",
"3. c #A0CD7E",
"4. c #A0CB5F",
"5. c #F4D24E",
"6. c #F2DB6A",
"7. c #FAE064",
"8. c #2F5292",
"9. c #2D7DBB",
"0. c #2C6EAC",
"q. c #43758C",
"w. c #467A8C",
"e. c #48788E",
"r. c #497985",
"t. c #4D6E92",
"y. c #4769A3",
"u. c #4567B7",
"i. c #4669B7",
"p. c #4667B9",
"a. c #4668B8",
"s. c #5275AD",
"d. c #475098",
"f. c #2C81BF",
"g. c #468289",
"h. c #49848B",
"j. c #498387",
"k. c #768F90",
"l. c #7CB582",
"z. c #72A98A",
"x. c #6D8EB5",
"c. c #7BA7AC",
"v. c #5580B4",
"b. c #3686C4",
"n. c #488EC8",
"m. c #5B9CD1",
"M. c #5294CA",
"N. c #769AC9",
"B. c #6D98D0",
"V. c #6EA8D9",
"C. c #84BA85",
"Z. c #93BE9A",
"A. c #8BB498",
"S. c #95AEA7",
"D. c #D9B6BA",
"F. c #D6AEB4",
"G. c #9ECD81",
"H. c #96C589",
"J. c #96C98E",
"K. c #A2CD83",
"L. c #A3CE89",
"P. c #AACF8E",
"I. c #A3D186",
"U. c #A6D18B",
"Y. c #AAD28C",
"T. c #A7D788",
"R. c #ADD494",
"E. c #AFD899",
"W. c #B1D496",
"Q. c #B4D69B",
"!. c #B7D99E",
"~. c #A0CA90",
"^. c #9CC4A7",
"/. c #A3C9A7",
"(. c #BBDAA4",
"). c #BEDBA9",
"_. c #B8D7A1",
"`. c #B4D4B8",
"'. c #B1CEB7",
"]. c #C2DDAD",
"[. c #C4DFB1",
"{. c #C8DFB4",
"}. c #CAE2B9",
"|. c #CAE3B7",
" X c #85A4CA",
".X c #95AACD",
"XX c #88A8D6",
"oX c #9BB3D8",
"OX c #8FB5D0",
"+X c #A8BCDA",
"@X c #ACBAD1",
"#X c #8DB3E0",
"$X c #A6BDE4",
"%X c #859CC0",
"&X c #DBBCC1",
"*X c #BDC9DA",
"=X c #B8C5D8",
"-X c #B3D1CA",
";X c #9BC2E6",
":X c #AAC7EA",
">X c #BACAE5",
",X c #BBD1ED",
"<X c #B3D3F1",
"1X c #DDC6CB",
"2X c #C3CCD6",
"3X c #C3CDDA",
"4X c #C8CEDA",
"5X c #DCC9D1",
"6X c #CAD3DC",
"7X c #C6D0DB",
"8X c #DDD2DB",
"9X c #C1DAC3",
"0X c #E2C9CD",
"qX c #E1CDD2",
"wX c #E8CCD4",
"eX c #E4D3D5",
"rX c #E8D8DB",
"tX c #D1E6C2",
"yX c #D8E9CB",
"uX c #DAEAD6",
"iX c #CCE2D1",
"pX c #E2EED8",
"aX c #E4F0DC",
"sX c #C2CEE3",
"dX c #CAD5E3",
"fX c #C8D6E9",
"gX c #D4DCE6",
"hX c #CBD8F4",
"jX c #E8DDE3",
"kX c #DBE3EB",
"lX c #DAE5EA",
"zX c #DBE6F6",
"xX c #E7E5EA",
"cX c #E9F2EA",
"vX c #E6ECF3",
"bX c #EDF3FB",
"nX c #E7F0FD",
"mX c #F7FAFE",
"MX c #F6FBFD",
"NX c #FAFEFF",
"BX c #FCFEFF",
"VX c #F3F5F8",
"CX c #F1F5EE",
/* pixels */
"<X:X:X;Xy.x.xXvXbXbXbXVXVXVXVXmXmXmXmXmXmXBXBXMXmXMXMXmXMXMXMXBXVXl.$ 3 3 - 2 3 2 2 2 2 2 & & 2 $ & $ $ 1 @ $ $ & @ # @ # # # # ",
":X#X:XV.8. XqXD.F.D.F.D.1XD.VXBXBXBXBXBXBXBXBXBXBXBXBXBXMXMXBXcXY % e e e 3 3 3 e % 2 3 2 e 2 1 Z B Y 4 = @ & @ @ @ @ # m n # # ",
"<Xn.V.OX8.=XjX5X1X1X5XrXD.0XrXwXjXrXrXrXrXxXwXrX&X&X1XrXMXBXiXu 9 e e e e e 3 e 2 e e e e 2 $ B CXcXvX-XZ.`.`.^.'.'./.'.kX9X> # ",
",X#X<X Xd.hXqXF.D.F.eXeXD.D.D.D.D.D.D.D.D.0X0XeXF.0XD.eXBX`.e e e e e e e e e e e e e e e 3 9 H /.^././.Z.C.Z.^.^.^.Z.Z.A.z.# & ",
"#X#X;Xx.s.lXjXzX1X5X1X1XwXqXqXeXqXpXxX0XeXeXeX1XrXBXBXBXJ.- e r r e r e e e r e 8 e e e e e e e % : % % - $ $ $ % # # # # # @ @ ",
"n.M.M.8.x.nX8XeX5X1X8X1X&XeXqX8XeXeXrXeXeXeXrXCXCXBXCXI - t t r t r t e r r r t r e e r e e e t N p i B B u 5 B n n B n 5 6 1 @ ",
"b.f.f.8.c.nXgX5X1X5XeXxX1XeXqXrXeXeXeX8XrXeXrXMXBXuXD 9 y t t r t t t t t q t r t r t e e e 8 Z u Z H Z N K Z n 3 $ 2 2 & 5 4 @ ",
"f.f.0.8.+XzXfXgXlXzXlXzXvXzXcXlXzXlXvXMXBXBXBXBX9Xt 8 y t t t t t t t t t t t t t r t t r r 0 C t C.C.P Z Y H Z u N 2 1 1 5 4 @ ",
"9.f.0.8.hXgX*X3X*X7X=X2X*X*X2X2X=X2X4XvXBXmXBX/.8 t y y y t y y t t y t t t t t t t t t t t r C t L I A l.P l.Y Z l.5 1 1 5 4 & ",
"b.f.0.y.zXfXsXfXfXgXgXgX8XlXlXlXlXlXxXuXbXVXH.9 y y y y y y y y y t y y y y y t y t y t t t r D t Y L L Y l.Z L P 3 3 3 1 u e & ",
"n.m.s.x.zX*X=X=X*X6XdX2X2X6X6X6X4X4X2XlXuXL 9 y y y y y y s y y y y s s y y y y y y y t t t t S y Y I P Y P P L N e - 3 % u u & ",
"n.;Xs..XzX>X=X=X*X*X7X=X-X2X2X2X4X4XbXyXS q h s y s y h s h h h h s h s s s s s y y y y y y q S y U I U P P U P u B N e 2 B u 1 ",
"m.#Xy.=XhXsX*XsXdXdXdX6X6XgXkX6XvXBX`.w w s s l h h h h h h h h j h j h j h h s h s s y y y w S y U [ I Y L U l.I Y l.B 9 B e 2 ",
"n.M.y.,XhX>X*X*XsXdXdXdXgXbXbXBXMX^.q s h h h h h j j k j j k k j j j j j j j j h h h h h s y S p G U U Z P L D I I 9 e e B u 2 ",
"b.9.s.fXfX>X+X=X*X*X*X=XdXkXVXcX[ q h s h j j j j k k z k z z k x k x v v k z k j j h h h h y S s [ C.G H.J.U U L L D e e B e 3 ",
"n.0.x.,XfX>X@X=X=X*X=XgXkXbXuXG w k h j j k z k x x x c F x F F c c c x x x x k z k j j h h s G k G U G D G D L L L Y N e N t 3 ",
"b.0. XfX,X@X@X@X@X3X*XzXbX-Xs w j j j k k z x x x c F F F F F F F F F F c c c c x x v k k k h j S h l l l y p p y y t p p p e e ",
"m.s.+X>X,X>X+X=X=XhXvXnX/.w h j j j z x x x F F F F F _ _ _ _ ` _ _ _ _ _ _ _ c c x c x z k j h h s y y y y t t t t r r e e e e ",
"m.v.+XoX+X+X+X>XhXzXzXC.w j j j j z z x F F c F _ ` $.%.%.&.` ` &.&.$.&.` ` _ _ _ ! c c x z z k h h h h y y y y t t t r t e e e ",
";Xx.oX.X+X@X@X+XsX-XU w j j j v z x x F F F $.%.%.&.&.&.&.&.*.&.&.&.&.&.&.&.%.` _ _ _ c c c z z k j h h h y y y t t t t r r e e ",
"OXN.$XoX+X$XsXhX-Xk w j j j k z x F F F F $.%.&.%.=.=.=.=.=.=.=.=.=.=.=.*.&.&.&.%.%.` _ _ c c z z k j h h y y y y t t t t t e e ",
"B. X$X:X:XsXhX/.y w j h j k z x F F F _ %.%.&.&.=.=.=.=.;.:.<.<.:.1.1.:.:.=.=.=.=.%.&.` _ ! c c x z j j h h h y y y t t t e t r ",
" XXX$XoX$X>XA.r s s h j k z x c F F ` %.&.&.*.*.;.:.:.>.:.>.,.<. .+.+.Q ] >.:.=.=.&.&.%.%._ _ c x x z k j h h y y y t t t 0 r e ",
"N..XoX$X+XY q p h h h j v x x F F _ ` &.&.&.;.;.:.>.>.>.,.>.K.W X.O.O o . ] =.:.;.=.=.%.%.%._ _ c c z z j j s s s y t t t t t r ",
"N.XXoX.Xd q s s s h j k x x F _ _ %.&.&.=.=.:.>.>.>.>.G.,.,.,...O.O.O o X g 7 ` -.2.@.g *.&.%.! $.c x v v j h s y y y y t t r r ",
"N.XXc.p y y y h h h k x x c F _ ` &.&.*.-.:.:.>.>.,.,.G.G.G.| X.O.X.o . Q g b @.2.2.~ g *.&.%.%.$.c c x v j h h s s y y t t t r ",
"B.z.q t y y y s h j k x x c _ $.%.&.&.;.:.:.>.,.,.,.G.G.G.G.+.....W O X ) 7 ~ @.2.@.g ' =.=.%.%.$.c x x v v j h s y y y t t t t ",
"z.q t t y y s h h k k x c F _ $.%.&.=.;.>.>.>.,.G.G.G.I.K.K.S.@XOXx.k.{ ^ 7 #.@.4.#.g :.=.=.&.%.$.$.$.x z v j h h y y w t t t 0 ",
"8 r t y y y s h j k z x c F _ %.&.=.=.:.>.>.>.3.G.G.K.I.T.A.B.:XXXs.d.A. .] ] ] ] ^ ] >.-.=.&.%.$.$.c c x v j h h s y y t t t t ",
"t r y t y p l h j k x x F F $.&.&.=.:.:.<.3.,.,.G.I.I.K.T.c.oX$XB.d.d.) Q R 5.6.5.o.;.>.<.=.=.&.$.$.! c x x v h h s s y t t t t ",
"t t t y y y l h j k x x F $.$.%.&.=.:.:.<.>.3.3.G.I.I.Y.J.N.:XXXB.d.r.( W E 7.6.E / ;.<.:.=.=.&.%.%.! c x x j j h y y y y t t t ",
"t t t t y y s h j k z c F F %.&.=.:.;.:.>.>.3.3.I.U.L.T.Z.x.S.A.%Xd.T Q R 5.7.5.E ' ,.:.<.-.=.&.%.%.! c x z j j h s y y y t t t ",
"t t t t p y s h j v z c c _ %.&.W._.W.Y.Q.Q.Q.Q.]._.T.I.U.K.K.T.K.~.| W R 5.7.5.( ,.3.>.>.:.*.*.%.$.! c x z v j s s w y t t t t ",
"t t p y y s s h j k z x c ! %.%.Q.3.K.).K.W.[.(.K.K.G.U.I.I.).R.K.K.P.3.} } } ] ' :.>.} ] ] / ) &.$._ c c z k j j s s y y t t t ",
"t t t y y s h h j k z c ! _ %.! uXQ.Y.BX3.{.tX).Y._.).K.(.|.cXW.].].W.Q.U.Q.I.E.Q.!.U. .+ W Q + ^ $.! c c v k j s s s y t t t t ",
"t t t y y y s s j k z c c _ _ ! Q.yX].pX|.}.].tXpX}.uXtXuX[.aX}.yX}.pXpX].CX!.aXaX}.W./ Q + + Q ` $.c c z v j s s s w y t w t t ",
"t t t t y y s h h k z x c c $.%.=.CXyXK.BX}.!.yXuXY.}.pXuXK.aXpX|.Q.aX}.cX}.CX!.[.yX}.=.1./ / &.%.! c c x k j j h y y y t t t r ",
"e t t t y y s s h j k x c ! _ %.! {.].%.yXR.Y.[.|.Y.[.(.}.tXyXW.tXyX!.Q.yXT.yXT.|.|.].-.*.*.&.%._ ! c c x v j j h s y y y t t t ",
"t t t t y y y s h j k z S c F _ ` <.&.3.=.>.>.,.>.>.3.>.W._.,.P.W.Y.I.3.3.>.3.<.:.<.=.-.*.%.%.%._ ! c x v k j s y s y t t t r t ",
"t t t t y y y s h h k k z F F F ! _.Q.{.R._._._.(.].].I.].!.Q.].}.].].].Q.[.(.Y.:.:.:.=.&.&.%._ _ c x x k j s s s y y t t t t r ",
"0 t t t t y y s s h j k x x F F ! L.;._.R._.W.L.W.[._.,._.!._.!.].Q.!.].Q.].I.R.=.=.=.=.&.%.$.! c c z v j h h s y y t t t t t r ",
"e r r t t t y y s s h j k x k F F &.;._ =.=.=.=.;.;.,.<.>.3.3.3.,.>.,.<.,.;.:.-.=.=.&.&.%.$.! F c x z v j h h h y y y t t t t e ",
"t e t t t y y y s s s j j k z F x L.P.W.R.P.W.Q.Q.(.Y.Q.).!.!.!.W.!.).Y.&.:.=.=.&.=.%.%.$._ c c x x v j h s h y y y t t t t r r ",
"e t t t t t t y y s h s j k z x x _ _ H.;.<.<.,.K.,.;.,.K.K.Y.K.K.K.K.<.=.=.*.&.%.%.%._ _ F c x x v j j s s y y y t t t r t r e ",
"e r r t t t t t y y s s l h j v z x F x F F _ _ %.$.&.%.$.&.&.*.&.%.&.&.&.&.&.%.%.` ` c c c x x v j j h h y y y t t t t t t 8 e ",
"e r e t t t t y y y y s h h l k v v x F F F _ _ $.$.%.&.&.&.%.&.&.&.&.%.%.%.$.` _ _ c c c c z k j h h s s y y y t t t t e e r e ",
"e 8 e r r r t t t y y y s s h k k v v x x c c _ _ _ $.$.$.$.*.$.` ` %.` _ ` _ _ c c x x z z k j j h h s y y y t t t t r r r e e ",
"e e r 8 r t t t t y y y s s s h h l k v z x x x c c F F F F F F ! _ F F F c c c c c x v k k j h s h s w y y t t t t r r e e e e ",
"e e e e r t t t t t t y y y s s s h j j j z z z x z x c c c c c c c c F c x x x z z k j j h h h s s y w t t t t t r r r e e e 3 ",
"e e e e e r e t t t t t t y y y s h h h j j j j z z z x x x x x x x x x x z v v j j j j h h s s s w y y t t t t t r r e e e 3 3 ",
"2 e 3 e e r e t e t t t t t y y y s s s h h h h j j j v k k k k v k j j j v j h j h h h s s y y y t y t t t t r r r e e e 3 3 3 ",
"- 2 3 e e e e e t r 0 t t t y y y y y s y h h h h h j j h j j j j j j j h j h h h h y h y y y y t y t t t t r r r e e e e 3 3 2 ",
"1 3 3 3 e e e e r r r t t t t t t t y y y s y h s h h h h h h h h h h h h s s s y s y y y y t y y t t t r r r r r e e 3 3 3 2 2 ",
"1 3 2 3 3 e e e e e r r t t t t t t t y t y y y y y y s s y s s y s s s s s y s y y y y p t t t t t t r r r e e 3 e 3 3 2 2 2 2 ",
"$ 2 2 3 3 3 3 e e e r r r r r t t t t t t y t y y y y y y y s y y y y y y y y p t y t t t t t t r t r r r e e e e 3 3 3 3 1 2 2 ",
"1 1 2 2 2 3 3 e e e e e 8 r r r t t t t t t t t t t y w t t t y y t y t y t t t y t t t r t r r r r r e e e e e 3 3 3 2 1 > > 1 ",
"& 1 1 1 2 2 3 3 e e e e e e e r r 0 r t t t t t t t t t t t t y t y t t t t t t t t r t 0 t r r r r r r 3 3 6 ; 3 3 : * , < , * ",
"& 1 1 1 1 2 2 3 - 3 3 e e e e r r r r r r r t t t t t t t t t t t t t t t t t t t t r r r r r r 3 r 3 3 3 ; ; ; 3 2 %   < , * = ",
"& & 1 > $ = $ = $ 2 3 - - ; ; 8 ; e 3 e 8 8 8 e 8 8 e t 8 q 8 8 0 t 0 0 0 8 0 0 0 8 r r r r 3 r r 3 3 3 3 3 ; 2 2 > < < @ @ = @ ",
"& $ n l.J K J K Y K Z J K H K P l.Z L A P I P L Z L l.C.I P C.U L Z I P P P L P K L C.i ; e e 3 5 3 3 3 3 3 - , * m m > > & * @ ",
"# # & 4 4 m n n 5 u u r N 5 N p N u p t p p C N p S p G S d d C C t d N p l p p p d d r 8 3 8 8 ; ; ; ; - = , 6 6 > * % $ % @ @ ",
"C g f B f s y a M w.g.h.g.h.g.g.h.h.g.h.h.g.h.h.h.h.h.h.h.h.h.h.h.h.h.h.h.h.h.h.h.g.g.h.h.h.h.h.h.h.h.g.h.r.r.j.r.r.r.w.w.w.g.r.",
"G ) ~ ~.J.H.S y g.p.u.a.a.a.p.a.p.a.a.a.a.a.p.p.a.a.u.u.a.a.a.i.i.i.p.p.a.a.i.i.p.p.p.a.p.u.u.u.u.a.p.u.u.p.u.y.u.u.u.u.u.p.0.p.",
"e 6 a u r t 0 3 q.q.q.q.q.q.q.w.w.q.w.q.w.w.w.w.w.w.w.w.w.w.w.w.w.w.w.w.w.w.w.w.e.e.e.q.w.q.q.w.q.w.q.q.r.q.t.q.q.q.q.q.q.q.q.q."
};
