/* XPM */
static char *aeutb_kxyh4[] = {
/* columns rows colors chars-per-pixel */
"64 64 250 2 ",
"   c #17030B",
".  c #1A040C",
"X  c #170106",
"o  c #1C0611",
"O  c #1E0912",
"+  c #1F0818",
"@  c #24040D",
"#  c #2B030E",
"$  c #240007",
"%  c #35020F",
"&  c #250611",
"*  c #2D0511",
"=  c #220915",
"-  c #2B0A16",
";  c #230B19",
":  c #2B0B1A",
">  c #330412",
",  c #390314",
"<  c #320916",
"1  c #3C0619",
"2  c #330B1B",
"3  c #3A0A1B",
"4  c #390818",
"5  c #29141C",
"6  c #33111C",
"7  c #3A101E",
"8  c #390E21",
"9  c #381624",
"0  c #321528",
"q  c #3D2239",
"w  c #440314",
"e  c #4C0215",
"r  c #43061B",
"t  c #4C051A",
"y  c #460A1C",
"u  c #530215",
"i  c #5C0215",
"p  c #54041A",
"a  c #5C031C",
"s  c #530A1C",
"d  c #5B0B1F",
"f  c #4D0512",
"g  c #630315",
"h  c #6A0216",
"j  c #62031C",
"k  c #6B031B",
"l  c #6B0C1D",
"z  c #650B1C",
"x  c #73031B",
"c  c #7B031B",
"v  c #76071C",
"b  c #6B101F",
"n  c #4D0B23",
"m  c #460C22",
"M  c #530B24",
"N  c #5B0A22",
"B  c #451424",
"V  c #4B1D2D",
"C  c #471828",
"Z  c #581629",
"A  c #461D37",
"S  c #581C32",
"D  c #670722",
"F  c #780823",
"G  c #6E1123",
"H  c #641B2F",
"J  c #67142C",
"K  c #731324",
"L  c #7C1425",
"P  c #771628",
"I  c #661C36",
"U  c #751B34",
"Y  c #46222D",
"T  c #4A2534",
"R  c #532333",
"E  c #5A2B3C",
"W  c #572638",
"Q  c #582935",
"!  c #632235",
"~  c #67263B",
"^  c #76253B",
"/  c #652937",
"(  c #592844",
")  c #5D3242",
"_  c #6B2442",
"`  c #672C47",
"'  c #772A45",
"]  c #643345",
"[  c #6A3346",
"{  c #6C354A",
"}  c #6C3A4D",
"|  c #663648",
" . c #74354B",
".. c #7C364B",
"X. c #7A3A4E",
"o. c #733649",
"O. c #762E51",
"+. c #6E3951",
"@. c #733D51",
"#. c #7C3C52",
"$. c #7B3256",
"%. c #6A2F50",
"&. c #7D4256",
"*. c #794255",
"=. c #83031C",
"-. c #8B031D",
";. c #91021F",
":. c #830322",
">. c #8B0C25",
",. c #870924",
"<. c #930B26",
"1. c #9B0C29",
"2. c #970626",
"3. c #841326",
"4. c #871227",
"5. c #941028",
"6. c #861A37",
"7. c #961633",
"8. c #8F0930",
"9. c #A70628",
"0. c #B8042B",
"q. c #B30A36",
"w. c #87243A",
"e. c #92243A",
"r. c #A3243F",
"t. c #C7022C",
"y. c #D7002E",
"u. c #C60433",
"i. c #D70436",
"p. c #C21D3E",
"a. c #E7053B",
"s. c #892C47",
"d. c #962A46",
"f. c #83344A",
"g. c #8B334B",
"h. c #85384D",
"j. c #98344C",
"k. c #843D52",
"l. c #8C3D53",
"z. c #883558",
"x. c #933C52",
"c. c #9B3C54",
"v. c #973557",
"b. c #922C52",
"n. c #A72C46",
"m. c #AA354E",
"M. c #B6324F",
"N. c #A43C53",
"B. c #AA3B53",
"V. c #A63957",
"C. c #B33C5D",
"Z. c #B83955",
"A. c #B42D4C",
"S. c #963C63",
"D. c #8C3D61",
"F. c #A73C64",
"G. c #B83D62",
"H. c #D81646",
"J. c #D80C43",
"K. c #ED0442",
"L. c #E70B43",
"P. c #EA1649",
"I. c #EE1454",
"U. c #EE1C55",
"Y. c #F00B4A",
"T. c #C53452",
"R. c #CA3452",
"E. c #C33954",
"W. c #C93B59",
"Q. c #D53656",
"!. c #CD2D4B",
"~. c #EA274D",
"^. c #ED2D51",
"/. c #EE2B5A",
"(. c #EC2455",
"). c #EE3254",
"_. c #ED3C5B",
"`. c #EB3558",
"'. c #F02458",
"]. c #EA3762",
"[. c #834256",
"{. c #8C4256",
"}. c #84445B",
"|. c #8B455B",
" X c #8B495D",
".X c #85485D",
"XX c #934156",
"oX c #94455C",
"OX c #9B445C",
"+X c #92495E",
"@X c #9D455B",
"#X c #A3445C",
"$X c #AB425C",
"%X c #A44156",
"&X c #B6415B",
"*X c #8C4B63",
"=X c #8B4A66",
"-X c #9B4662",
";X c #954B63",
":X c #9A4B63",
">X c #954E68",
",X c #994E69",
"<X c #944663",
"1X c #8E506A",
"2X c #94526D",
"3X c #9A526C",
"4X c #945166",
"5X c #965670",
"6X c #9B5672",
"7X c #9C5A75",
"8X c #9F5E79",
"9X c #975872",
"0X c #944C70",
"qX c #A54764",
"wX c #BE4163",
"eX c #B6456B",
"rX c #AD4A75",
"tX c #BA4B76",
"yX c #A05975",
"uX c #BD517B",
"iX c #A0607A",
"pX c #9F607B",
"aX c #C0415D",
"sX c #ED4A5D",
"dX c #ED435A",
"fX c #ED515C",
"gX c #EC5A5C",
"hX c #EB695E",
"jX c #EC715D",
"kX c #C54466",
"lX c #C7537E",
"zX c #CD4B78",
"xX c #ED4A62",
"cX c #EC5962",
"vX c #EC5D76",
"bX c #EB6463",
"nX c #EA6C64",
"mX c #EA7464",
"MX c #EA7C69",
"NX c #EA7A66",
"BX c #EE6376",
"VX c #E9846A",
"CX c #E8976A",
"ZX c #E9A16E",
"AX c #CB5884",
"SX c #D45A89",
"DX c #E16191",
"FX c #ED7486",
"GX c #ED8F95",
"HX c #EDA1A1",
/* pixels */
"I.I.I.I.I.U.U.U.'./././.].dXdXsXfXcXbXhXnXNXVXCXCXZXZXCXCX_.a.q.9.8.:.:.:.:.:.:.F F F F 6.b.F.F.G.G.AXG.b.A.7.e.e.e.,.d.F.eXAXlX",
"I.I.I.I.I.U.U./././._._.dXxXsXcXgXbXhXmXNXVXVXCXCXVXVXjX_.J.q.2.8.2.:.F :.F F F F D D F F U b.b.F.tXtXzXF.b.6.6.6.8.d.F.tXAXSXDX",
"I.I.I.U.'././.`._.dXdXxXcXfXcXbXhXmXNXNXNXVXNXjXjXhXdXa.0.9.2.2.:.:.:.c F k D D j D j D D D ' b.S.S.rXuXF.F.A.8.6.b.tXAXAXDXlXU ",
"I.I.U.'./.`._.xXxXxXcXcXcXbXnXmXmXjXNXjXjXgXdX).~.P.a.0.2.2.2.:.:.c F F k D j a j a j N D D U ' b.D.S.rXrXS.b.G.G.AXAXAXDXF.n n ",
"U.'./.)._.dXxXxXcXcXbXbXnXmXmXmXjXjXjXgX).Y.K.Y.a.K.q.9.2.-.=.:.F x k k D D a a a a N a a D D J _ b.D.S.rXS.6.G.SXAXSXSX_ t n M ",
"/./._.dXsXxXcXcXbXBXmXNXNXmXmXmXjXgX).I.Y.K.a.a.P.P.t.;.;.=.=.x k j h a a j a a a a a a p a N N I _ z.S.S.z.b.v.b.AXG.M t M M n ",
"_._.dXfXcXcXbXnXmXMXMXMXNXmXhXfX).Y.K.Y.a.K.Y.a.vXp.0.;.-.=.x k j j u p p a u i p a p N p p a d N J _ D.D.b.z.' _ v.G.V.M m n n ",
"dXxXfXcXbXnXMXMXMXVXVXNXjXfX~.P.K.K.a.a.Y.Y.HXfXa.u.2.;.c x g j a u p e u p p p p p t e p t t p M M N _ z.D._ _ _ z.F.zXG.U m n ",
"fXcXcXnXmXMXMXVXVXMXmXgX).P.L.i.a.K.P.P.GX).a.a.y.9.:.c k h i i u p u p u f M s f e w w f f e t t m t n _ z._ I _ b.S.S.F.tXb.8 ",
"cXbXnXmXMXMXVXMXmXcX`.U.P.J.L.L.K.).HX^.a.a.y.a.t.2.c x k g i i u u p e f s Z Z s y w w w f y w r t t m m _ ( I _ _ $.$.z.S.uXF.",
"nXnXmXmXMXMXnXcX`.U.P.H.a.a.K._.GXa.~.a.y.0.t.y.;.c x g g i p p e p s Z H / ! H Z Z n y f % y w r r r r 8 m M I I _ O.$.$.D.S.tX",
"nXmXmXnXcXxX^.P.H.H.L.L.a.vXGXP.~.y.t.0.9.9.t.9.=.x h g a i u u s Z H ^ ..^ ' ' / ! Q V B 4 w w 1 r 1 1 1 m m Z I ( _ _ $.$.$.S.",
"bXcXsX`.(.H.H.H.L.a.a.FXxX~.^.y.t.0.9.0.9.9.0.;.x k g g a i u p Z ^ ' g.h.h.k.h.f.^ ../ R B w 4 1 1 1 r 1 8 8 n M I I I _ I _ %.",
"_.~.P.H.H.H.L.a.(.GX^.`.~.i.0.0.9.9.9.;.;.9.2.=.x h g a i u t Z ^ f.l.l.XXXXXXx.{. X{.[./ R B , , 1 1 1 4 4 1 8 ( O.z.v.S.b.b.b.",
"P.H.H.H.i.a.].vX~.BXP.y.0.9.9.9.2.2.;.-.-.;.;.c h g g i u e s ^ g.x.XXc.XXoXXXoX+X+X+X+Xh./ Q 7 , 4 4 4 , 8 4 8 n O.z.z.z.b.S.S.",
"H.H.i.i._.U.xXBXa.y.u.9.9.2.7.1.;.-.-.c -.;.=.x g g g i e s H g.c.XX@XOXOX<X-X+X+X@X+X@X+X[.o.Y 4 4 , < 2 2 2 8 8 A %.O.$.O.z.z.",
"J.L.'.Y.FX^.y.y.0.9.1.9.5.<.8.,.:.=.c x c c c h g h j u e Z ^ N.N.OXOXOX-X-X-X>X:X+X;X:X4X+X[.E 8 < < < < 2 2 2 2 8 ( %.O.O.O.O.",
"K.vXGXa.a.u.q.9.1.1.5.5.>.>.:.4.,.F x x x c h g g g i e s H j.B.V.V.qXqX-X-X<X-X:X;X:X,X:X+X X@.C - < < > < 2 2 3 2 A ` %.%.%.` ",
"^.L.a.u.9.9.<.1.5.5.5.-.:.3.3.L F v x h h h g g g k e e N ^ m.B.qXF.-X-X-X<X-X,X;X:X;X;X4X;X*X&.R 2 < > < - 2 2 8 2 0 A ( %.%.( ",
"a.u.0.1.1.5.5.5.5.4.=.3.=.v c v v k k g g g i g g i e p H U ^ w.j.c.-X-X-X<X<X>X>X:X,X4X;X;X X[.E 8 < < * - - 2 6 : 8 A ( %.( ` ",
"0.9.1.1.7.5.>.>.4.=.3.=.v v v v v g g i g g f g g u e a J G N s n H ' ..<X<X<X;X<X;X,X,X>X<X*X.X[ C < - * * - - : : : 0 A ( ( %.",
"2.1.5.5.5.4.4.3.4.3.L v L F l l h g g i i f f g i u e J A.m.j.' ! S S ! h.<X<X;X;X<Xz.*X*Xz.}..X*.Y - * * * & - : 8 : : 0 A ( ( ",
"2.<.<.>.4.3.4.3.L v L L K l l l z g i i f f f i u p e e.T.n.j.x.k.h.' ' ..<X<X<X|.O.W S V V V ] *.R - * & * & * : : : : 0 0 A ( ",
"<.>.4.4.3.3.3.3.L L L K K l z z b G g f f f f i u e p 6.r.w.^ ^ ' ' f.l.c.XX=X<X#.W W W W W V T Y T < * & & & & : ; : : : 0 q q ",
">.3.3.3.3.3.L P P P K b l z G U ^ ^ s f e f f e f u f N p s y y m S ^ ..c.XX;X| [ | E }.|.|. X.X| R 6 - @ @ & & & & : : : : q q ",
"v 3.3.L L P P P P P b b K ^ g.g.f.^ u f e f f g e.d.^ N e H ~ B B Z ! ^ m.qXT 5 E [ 5 9 #.#.#.[..X| 6 & & @ & @ & & & - = : : q ",
"v L L K P P K G b b P ^ x.x.v.N.j.U e e e % z T.&XqX$X&XN.s.U W W Q ! f.d./ l.#.{ Q S B V R R ] *.E 6 - & @ & & o & & = : ; ; : ",
"K K K K F G l G ^ s.c.%XV.V.C.C.N.J e e , z T.C.@X@X:X+X:XqX$Xg.^ ^ s.j.6 ~ x.{ { / R Z & & > * Q ) 6 - = @ @ & & & o & = = ; ; ",
"F l z l l G ^ j.N.C.qXC.G.G.G.C.j.J e w l E.$X#X@X:X;X:X+X;XqXoXw.g.j.M.w.&X{.o.o.o.o.o.Y 9 / Z ] | 0 = & @ . & & @ & . + = + = ",
"z g j z a N s.C.&XC.G.G.G.G.C.C.m.J % l T.$X@X@X:X+Xl.k.|.;X;XoXXXm.aXe.n.&X{.*...o.X.X.o.| ^ *.*.*.6 & = & & . . @ . o + = = = ",
"j i j a a a u U C.kXW.wXwXwXwXC.b.J F Z.$X@X:X:X4Xl.Z.Z.j.l.{.l.@XN.aXw.Q wX+X[...[.[.h.[.[.[.*.*.| 9 O & . . @ o . o o = ; + = ",
"j j j a a a a p J C.kXwXwXwXG.C.A.A.Z.#X@X+X:X;X*XB.Q.Q.W.n.l.f.g.x.M.M.w.eXoX[.[.[.[.{.[.Y [..X.X*.5 . = = . . . & o + ; = + ; ",
"D D a d a a a z p N B.kXkXaXaXQ.!.T.j.XXXXoX+X*Xl.T.Q.Q.W.M.j.! ^ h.M._.&X#X+X{.&.k.{.oX[.5  X.X.X) ; O O 5 . X O O O = = ; = ; ",
"D D j a a p u u p d 7._.`.Q.Q.!.aXaX&XXXl.{.+X Xg.T.R.W.W.W.B.U ^ s.R.Q.$X@X+X X....|.+X|.|  X.X}.Y . O O O O @ @ O O 5 = ; = = ",
"p p p a D F 4.r.!.~.Q.!.!.Z.&X%X%XXXoX+X{.{.{.{.s.A.R.R.W.&X&X6.c.g.w.U d.{.X.^ o.h.|.+X;X3X X}.*.9 & O O O O O X O O O + ; ; O ",
"8.q.p.H.^.^.).~.Q.M.M.B.m.%X%X%X%XXX+X X+X{.[.{.s.!.R.T.W.W.&Xm.$Xc.w.^ e.^ / Q X.z.|.<X@.E *X*.E Y O O O O O O O O O O + ; + + ",
"^.^.R.R.M.m.m.m.m.m.m.%X%X%X%X%X%X@X{.{.+X X X{.w.A.R.T.T.aX&X&X&X&XZ.T.n.^ f.&.[.|.|.:XT T *.*.Y 6 5 O ; = O O O o = + + + = O ",
"N.v.x.j.x.XXx.XX{.XXXXXXXX@X@X+X@X+X4X{. X;X:X+X{.N.A.R.T.Z.E.E.aXaXZ.r.^ ^ ^ f.}..X}.}.) | } | - 5 9 = O O O O = o o = + = ; + ",
"l.x.l.x.XXj.j.XXXXj.XXXX%X#X$X#X{.+X+X{..X;X4X;X=X=XXXM.T.T.Z.E.Z.M.e.^ H J H / X.*.*.*.) *.} Q X O 0 = . O O O O = o + = + + + ",
"x.c.c.c.%X%X%X%X$X$X%X&X$X$XqX#X@X X X+X.X*X2X2X1X&.*XXX%XZ.M.d.e.w.U H J J J H / ) *.T 5 | | 5   . 5 5 O O O O O O ; o + = + + ",
"c.oX@X@XOXOX@X@XqX@XqXqX:XqX,X3X4X{. X X.X[. X4X=X0X=X*Xl.x.@Xj.j.e.U ^ U I ! H ~ } *.T T *.q X . . . 5 X O O O O O O + O + + O ",
"oXoX+X+XoX;X;X;X:X,X3X3X6X7XyX3X4X+X.X X X[.*.*.@.1X1X1X<X|.XX#X%Xw.U P I H H ! [ @.} E ) Q X X X . X 5     O . O O O O O + = + ",
",X:X;X;X;X,X,X,X,X,X6XyXyXyX7X7X3X+X{. X X.X7 < ] *X=X>X;X;X;X,X3XqXl.^ I ! ~ [ [ | E ; Q & X . X .   O       O O O . . O ; + O ",
";X,X3X4X3X3X3X3X6XyXyXyXiXiX8X7X7X4X.X X4X XQ @ 8 / .X4X4X2X6X6X3X3X@XOXk.{ { } | *.q 5 & X . . X .   O X X   O . O O O O ; ; ; ",
"0X>X5X>X2X3X5X6X7X7X8X8X8XiXiX8X7X4X+X X X4X| # > # 8 Q o.*X2X2X3X3X@XoX@XXXk.@.| ] Y & X . . . . . . . .   .         O O O ; ; ",
"2X5X>X5X2X5X5X5X9X9X8X8X8X8X8X8X8X9X4X{. X4X[.B # * # $ @ B [  X2X:X3X:X;X+Xf.` | T - X     . . . . .   .             o ; ; ; ; ",
"2X5X5X2X5X5X5X5X2X4X=X6X5X9X7X7X7X7X6X4X X X Xf.7 @ * * # @ & B ] }.<X:X;X;XR - 7 9 @ X . . X .   X X .               o O O ; ; ",
"2X1X2X2X2X2X1X1X1X*X#.[  . .}.|.3X7X7X4X{. X{.[.T : & # @ < 7 - * B E }.<X>X{ ; 5 : = X . . X X . .   X             o o     o O ",
"1X1X1X=X1X=X=Xz.@. .^ ~ _ _ [  .;X6X9X5X*X}. XX.Y 0 : @ # < 7 R C C C Q { @. X] ; 0 5 5 . X . X X . X O               O   o     ",
"*X*X*X*X#.{ V m 1 I $.#.}..X=Xk.|.6X6X5X;X[.{ B : - & @ # 6 Y Q E E E T W E R 7 X   5 ; @ .   . . X O X                 o o   o ",
"=X#.` S B 4 * > , 4 m C V S W S V ~ 3X5X1X[ @ $ $ $ @ @ * B R E E ) ] E Y 6 $ X X & ; X X   X . O   .             O     o     + ",
"S C 3 2 1 < * > * * > > > > * * # m >X5X1XE $ # @ @ $ # 6 B Y / ] ) V - @ X X . X . & X   . . .   . .           O       o o     ",
"8 3 4 > < > > * > > > # * * * * % m :X2X2XR $ # @ @ @ < C R V V V 6 @ X . . X .     X       X .     O                     o   o ",
"4 < > # * > # % > > > > > > * > # H :X3X1X3 @ # @ @ * 4 C B 6 @ X . . X . . . X O & X                           o +       o     ",
"> > > % * # # # # # # > * * > * , j.:X3X] @ @ @ @ @ @ # - - X X o @ . .   .   X & . X . .     . O   O     X                 o   ",
"> % , , , % # % # # # # # # * @ y V.,X[ $ # # @ @ @ $ X . - 6 . X . . X X X & = @ . X . .   .                   o           o o ",
", , , , , > % > % # # # # # # @ # h.k.* @ # # @ @ @ @ @ @   - 6 : = X   - 5 5 & X . X . .     .   o o           o           +   ",
", , % , , % % % * % # # % # # # $ y n @ # @ @ @ @ @ @ @ @ O   6 9 9 0 9 5 -     . . . . .                       o   o     + +   ",
", % % , , % # # # # > > # % # # @ < * @ @ & @ @ @ $ @ @ . . . @ 6 & = & . X . .   . . .           o   o         o o             ",
", , , , , > > # > * # # # # # # # # # @ @ # @ @ @ @ @ @ @ . X & Y 6 X . . . . .   . O             o o   o         o       +     ",
"% % > , % > # > # > # > # > > # # # # # # @ # @ @ @ @ @ @   . . 6 < . . . .   .   o . .   +                       + +   +     + ",
"% , % # > > # # # # # * # # # # # $ # @ @ @ # @ @ @ @ @ . . . . & 7 . @ $ X . X O   . o               o                         ",
"# > % > > # > # # # # # # # # # @ # # # # @ @ # # @ @ . . . . .   - @ . . . . X   o o           +   +           +     +   +   o ",
"# * % # > > # # # # & # # # # # # # @ $ @ # # # # @ . . . . @ . @ . . . @ .   @ o + o +                 +       +     +         "
};
