/* XPM */
static char *avr7u_g8t32[] = {
/* columns rows colors chars-per-pixel */
"64 64 141 2 ",
"   c #010101",
".  c #0C0C0C",
"X  c #131313",
"o  c #1B1B1B",
"O  c #242424",
"+  c #2C2C2C",
"@  c #333333",
"#  c #3C3C3C",
"$  c #434343",
"%  c #4C4C4C",
"&  c #535353",
"*  c #5B5B5B",
"=  c #656565",
"-  c #6A6A6A",
";  c #747474",
":  c #787677",
">  c #777877",
",  c #7B7B7B",
"<  c #848484",
"1  c #8A8A8A",
"2  c #979797",
"3  c #949494",
"4  c #919191",
"5  c #989898",
"6  c #999999",
"7  c #9A9A9A",
"8  c #9B9B9B",
"9  c #9C9C9C",
"0  c #9D9D9D",
"q  c #9E9E9E",
"w  c #9F9F9F",
"e  c #9A9A9A",
"r  c #A0A0A0",
"t  c #A1A1A1",
"y  c #A2A2A2",
"u  c #A3A3A3",
"i  c #A4A4A4",
"p  c #A5A5A5",
"a  c #A6A6A6",
"s  c #A7A7A7",
"d  c #A3A3A3",
"f  c #A8A8A8",
"g  c #A9A9A9",
"h  c #AAAAAA",
"j  c #ABABAB",
"k  c #ACACAC",
"l  c #ADADAD",
"z  c #AEAEAE",
"x  c #AFAFAF",
"c  c #AAAAAA",
"v  c #B0B0B0",
"b  c #B1B1B1",
"n  c #B2B2B2",
"m  c #B3B3B3",
"M  c #B4B4B4",
"N  c #B5B5B5",
"B  c #B6B6B6",
"V  c #B7B7B7",
"C  c #B5B5B5",
"Z  c #B8B8B8",
"A  c #B9B9B9",
"S  c #BABABA",
"D  c #BBBBBB",
"F  c #BCBCBC",
"G  c #BDBDBD",
"H  c #BEBEBE",
"J  c #BFBFBF",
"K  c #BDBDBD",
"L  c #C0C0C0",
"P  c #C1C1C1",
"I  c #C2C2C2",
"U  c #C3C3C3",
"Y  c #C4C4C4",
"T  c #C5C5C5",
"R  c #C6C6C6",
"E  c #C7C7C7",
"W  c #C1C1C1",
"Q  c #C8C7C7",
"!  c #C8C8C8",
"~  c #C9C9C9",
"^  c #CACACA",
"/  c #CBCBCB",
"(  c #CDCDCD",
")  c #CECECE",
"_  c #CFCFCF",
"`  c #D0D0D0",
"'  c #D1D1D1",
"]  c #D2D2D2",
"[  c #D3D3D3",
"{  c #D4D4D4",
"}  c #D5D5D5",
"|  c #D6D6D6",
" . c #D7D7D7",
".. c #D8D8D8",
"X. c #D9D9D9",
"o. c #DADADA",
"O. c #DBDBDB",
"+. c #DCDCDC",
"@. c #DDDDDD",
"#. c #DEDEDE",
"$. c #DFDFDF",
"%. c #D9D9D9",
"&. c #E0E0E0",
"*. c #E1E1E1",
"=. c #E3E3E3",
"-. c #E4E4E4",
";. c #E5E5E5",
":. c #E6E6E6",
">. c #E7E7E7",
",. c #E3E3E3",
"<. c #E8E8E8",
"1. c #E9E9E9",
"2. c #EAEAEA",
"3. c #EBEBEB",
"4. c #ECECEC",
"5. c #EDEDED",
"6. c #EEEEEE",
"7. c #EFEFEF",
"8. c #EBEBEB",
"9. c #F0F0F0",
"0. c #F1F1F1",
"q. c #F2F2F2",
"w. c #F3F3F3",
"e. c #F4F4F4",
"r. c #F5F5F5",
"t. c #F6F6F6",
"y. c #F6F7F7",
"u. c #F7F7F7",
"i. c #F6F6F6",
"p. c #F7F9F8",
"a. c #F8F8F8",
"s. c #F9F9F9",
"d. c #FAFAFA",
"f. c #FAFBFA",
"g. c #FBFBFB",
"h. c #FCFCFC",
"j. c #FDFCFC",
"k. c #FDFDFD",
"l. c #FEFEFE",
"z. c #FFFFFF",
"x. c #FDFDFD",
/* pixels */
"G 1 4 4 4 1 4 4 1 4 4 4 4 4 4 4 4 3 4 4 4 4 3 4 4 4 3 4 3 4 4 4 4 4 1 3 4 4 4 4 4 4 3 4 4 4 4 3 4 4 4 3 4 1 4 4 4 1 4 1 4 1 >.z.",
"= : z p f p f f f f p p p p f p f p f f f f p p f f f f p p p p p p p f f f f f p p f f f p p f f f f f f p f f f f p t V & n z.",
"- R z.z.z.z.z.z.z.z.z.z.z.z.z.z.z.z.z.z.z.z.z.z.z.z.z.z.z.z.z.z.z.z.z.z.z.z.z.z.z.z.z.z.z.z.z.z.z.z.z.z.z.z.z.z.z.z.z.z.z.1 z z.",
"- G z.e.e.d.d.e.d.d.e.d.d.e.d.d.d.e.d.d.d.d.e.d.e.d.e.e.e.z.d.d.z.e.e.e.e.d.e.d.e.d.d.e.d.d.e.d.d.e.d.d.e.d.d.e.d.e.d.q.z.1 z z.",
"= I z.d.z.d.h.z.z.d.z.d.z.z.d.z.d.z.d.d.d.z.z.d.d.z.z.z.6.X.{ X.#.6.z.z.d.e.d.z.z.d.z.z.d.z.z.z.z.d.d.z.d.z.d.z.z.d.z.e.z.1 z z.",
"- I z.d.h.h.h.h.d.z.d.z.d.d.z.d.z.d.d.z.g.z.e.e.z.( 4 - & & # X X @ - G d.z.d.d.d.z.d.d.z.d.d.d.z.d.z.d.z.d.z.d.d.z.d.d.z.1 z z.",
"= I z.d.h.h.h.h.d.z.d.d.d.d.d.d.d.z.z.d.z.e.z.q.1 & & = 1 9 * o .     . * { z.e.z.d.d.d.d.d.z.d.d.d.z.d.d.d.z.z.d.z.d.d.z.1 z z.",
"= I z.d.h.h.h.h.z.d.z.d.z.z.d.z.d.z.d.z.e.z.X.* X * 1 # O < 9 3 -   & - = # f z.e.d.z.z.d.z.d.z.z.d.d.z.d.z.d.d.z.d.d.d.z.1 z z.",
"- G z.d.d.z.d.d.d.d.z.d.z.z.d.z.d.d.z.e.z.R O   $ * o   X 1 5 f R 9 p V R V # V z.e.z.d.d.z.d.d.d.z.z.d.z.d.d.z.d.d.d.d.z.1 z z.",
"= I z.d.d.d.z.z.d.z.d.z.d.d.d.d.z.d.d.z.! O   + 4 3 * $ 4 9 n f z 1 O - O * < * d.d.d.z.d.z.z.d.z.d.d.z.d.d.z.d.d.z.z.d.z.< z z.",
"- I z.d.z.d.z.d.z.z.d.d.d.z.z.d.z.d.d.q.- @ & , : 3 9 m f A : . * ;   . . o & X V z.d.z.z.d.d.z.d.d.d.d.z.d.z.d.z.d.d.d.z.< n z.",
"= I z.d.d.z.d.d.d.d.z.d.z.d.d.z.d.z.z.X.% < = * - : n < o $     O z % % , ! #   + >.d.d.d.z.d.d.d.z.z.d.z.d.d.z.d.z.z.e.z.1 z z.",
"= I z.d.d.z.d.z.d.z.z.d.d.d.z.d.g.d.z.n % , < - O < n < - o     + n < t =.<   X   z z.d.d.d.d.d.z.d.d.d.d.z.d.d.z.d.d.d.z.1 z z.",
"- I z.d.d.z.z.d.z.d.d.d.d.z.d.z.h.d.z.,   - ; o   * n 8 G < O % & ; - 3 V < - f # - z.e.d.z.z.d.d.z.z.z.z.d.z.d.d.z.d.d.z.1 z z.",
"= I z.d.z.d.d.z.d.d.d.z.d.e.d.z.g.d.p.$   & * $ + - = + # 1 G 3 < [ ; ; V V - & 4 * q.d.d.z.d.d.d.z.! , #.z.d.d.d.z.d.d.z.1 z z.",
"= I z.d.d.d.z.d.d.z.z.#.e.z.d.d.d.z.-.X @ - = * & t % , <   # $ ; , t f 5 @   3 X.$ ( z.d.z.d.z.z.q.< , < z.d.d.z.d.d.d.z.1 z z.",
"- I z.d.d.d.z.d.z.d.z., % [ e.e.z.z.( # - + % & $ . X < , 9 ! X.>.3 - t @ X n { : # =.z.d.h.h.h.z.q.2.G < z.d.d.z.d.z.e.z.1 z z.",
"= I z.d.z.d.d.z.d.z.e.2., + n z.e.z.( & o   $ * X . o - p q.I p t - % , 4 [ A *   o 2.d.d.h.h.h.d.z.q.* { z.d.z.z.d.z.e.z.1 n z.",
"- I z.d.d.z.d.z.d.d.d.z.z.[ [ z.d.z.( - % o * $   o = < & & , & & # # z =.p , @ o % =.z.d.z.h.h.d.z.2.p d.d.d.d.d.d.z.d.z.1 z z.",
"= I z.d.d.d.z.d.z.d.e.e.q.d.z.d.d.z.X.& & = & $ % & * < 9 1 f = , , - 4 # @ t 5 ! - X.z.d.h.h.h.z.z.2.t e.d.z.z.z.d.d.d.z.1 z z.",
"- G z.d.z.d.d.z.d.q.d.z.z.z.e.z.d.d.2.& * @ $ < - = O @ ( < & - - , & o     O ; < $ { z.h.z.d.h.d.z.2.n d.d.d.d.z.d.d.d.z.1 z z.",
"= I z.d.d.z.d.d.z.n % * & < e.d.z.d.q., # O $ & # $ O + * % = ; , 3 5 t n z z - + # [ z.e.d.z.d.d.d.d.z.d.d.z.z.d.d.z.d.z.< z z.",
"- I z.d.d.z.d.z.z.2.A t 9 z q.d.d.e.e.* % < @ * - 3 G ( X.q.z.z.z.z.z.z.! - I X.% # I 2.p.z.h.h.d.d.d.e.d.d.d.d.z.d.d.d.z.1 n z.",
"= I z.d.d.d.z.d.d.d.z.z.z.z.d.e.d.z.X.@ * X = d.d.d.d.d.z.d.d.e.e.d.e., . f < G = @ * & ! z.d.h.z.d.z.d.d.z.z.d.z.d.z.e.z.1 z z.",
"- I z.d.d.z.d.d.z.d.d.d.z.q.2.d.e.z.f % O   , z.d.z.z.d.6.d.d.d.d.d.,   5 z.e.6.: . n I : z.g.h.d.z.z.d.z.d.d.z.d.z.d.d.z.1 z z.",
"= I z.d.z.d.d.z.d.d.d.>.5 $ G z.e.q.& + +   t q.z < = # # , #.d.z.! X 9 z.e.e.z.p # < O., &.z.g.z.d.d.z.d.d.z.d.d.d.z.d.z.1 z z.",
"= I z.d.z.d.d.z.z.d.z., * V q.d.z.z = q.1 . X.X.* + o X X & { z.q.z X.e.X.R #.z.V * z e.> [ z.d.d.d.d.d.z.d.d.z.z.d.d.d.z.1 z z.",
"= I z.d.d.z.d.d.d.d.d.2.z.z.d.e.z., G I 1 - e.q.z.d.X.R X.q.d.z.[ 5 n * = & 4 z.z O #.z.: [ z.d.d.z.z.d.z.d.d.z.d.z.z.e.z.1 z z.",
"- I z.d.z.d.d.z.z.d.d.z.d.e.d.d.z.; R 9 % 3 z.p.( = * * - =.e.z.V 4 1 1 - d.q.z.t   1 q.- =.z.d.z.z.d.z.d.z.d.d.z.d.d.d.z.< n z.",
"- G z.d.d.z.d.z.z.d.d.z.d.z.z.d.d.& I z.3 * z.z.p I n % ( 2.d.z.n A z.R 1 d.e.z.1 # 4 ! - z.d.z.d.d.z.d.z.d.d.z.d.d.z.d.z.1 z z.",
"= G z.d.d.z.d.d.d.d.z.d.z.z.d.d.d.* [ 6.& # d.e.d.z.{ f d.z.e.z.I n d.e.z.d.e.z.< * X.1 t z.d.d.d.d.d.d.z.d.d.z.z.d.d.d.z.1 z z.",
"- I z.d.z.d.d.z.z.d.d.z.d.z.d.d.z.: V [ @ $ >.d.e.e.d.z.e.d.d.z.>.5 e.d.e.z.e.z., G q.& =.z.d.d.z.z.d.z.d.z.d.d.z.d.d.d.z.1 z z.",
"= I z.d.z.g.d.z.h.h.h.h.h.h.z.d.z.n = q.>., ! z.d.d.d.d.d.d.d.d.e.5 6.d.d.d.e.z.> t - 1 z.d.d.z.d.h.h.h.h.h.h.h.h.h.z.u.z.1 z z.",
"= I z.d.d.h.h.g.h.h.h.h.h.h.d.d.e.d.& z z.< V z.e.e.d.z.z.z.d.e.d.5 =.z.d.z.>.2., + , q.d.d.g.h.z.d.h.h.h.h.h.h.h.h.d.p.z.1 z z.",
"- I z.d.g.z.z.d.h.h.h.h.h.h.g.z.d.z.I $ q.9 4 q.R e.d.d.d.d.d.z.z.9 [ z.e.z.z I : I z.e.d.z.d.h.h.h.h.h.h.h.h.h.h.h.g.d.z.1 z z.",
"= J z.d.g.d.g.d.h.h.h.h.h.h.d.z.z.e.d.1 $ $ = d.z #.z.d.d.z.G ; f & >.d.d.z.3 [ = X.z.d.z.d.h.h.h.h.h.h.h.h.h.h.h.h.h.d.z.1 z z.",
"- I z.d.d.g.z.z.h.h.h.h.g.z.d.h.d.d.q.e.G V - q.X.V d.d.d.z.I o   - z.e.d.e.1 X.t 6.d.d.z.d.h.d.h.h.h.h.h.h.h.h.d.d.z.d.z.1 n z.",
"= I z.d.z.g.d.g.h.h.h.h.h.h.h.g.z.d.d.d.z.z.= [ e.n =.d.z.e.z.{ - &.h.d.z.=.1 { A z.d.z.d.h.h.z.h.h.h.h.h.h.h.h.z.z.d.e.z.< x z.",
"= I z.d.z.d.h.d.h.h.h.g.d.h.h.h.z.d.d.d.e.z.1 , z.I R z.d.d.z.6.h.#.O.q.z.G 9 5 9 z.d.z.z.d.z.d.h.h.h.h.h.h.h.h.d.z.z.d.z.1 z z.",
"- I z.d.g.h.h.z.g.h.d.z.z.g.h.d.d.d.z.z.d.d.6.# I 2.V e.e.>.3 = ; , : 5 z.9 9 = >.z.d.d.h.h.d.d.h.h.h.h.h.h.h.h.d.d.d.d.z.< n z.",
"= I z.d.z.h.h.h.h.h.g.h.h.h.g.z.z.d.d.z.d.d.z.& # d.R #.z.5 9 6.! G V -.z.5 - @ 2.z.d.z.z.d.d.z.d.z.d.d.z.d.d.z.z.d.z.e.z.1 z z.",
"= I z.d.d.h.z.d.h.d.z.d.z.g.h.h.z.d.z.d.z.d.q.< @ , q.! 6.6.#.& O o 3 d.e., $ * #.z.d.d.d.z.z.d.d.d.z.z.d.z.d.d.d.z.d.d.z.1 z z.",
"- I z.d.h.h.d.z.g.z.d.z.d.h.g.h.d.d.z.d.d.z.e., 4   5 #.=.d.>.; , { z.u.4.$ * , { z.d.z.d.d.d.d.z.d.z.d.d.z.d.z.d.z.d.d.z.1 z z.",
"= I z.d.h.h.h.d.h.h.h.g.h.h.z.d.z.d.d.z.d.z.d.- X.@ . R e.e.d.z.z.d.q.z.[ . k < [ z.d.d.z.d.z.z.d.z.d.d.z.d.d.z.z.d.d.d.z.1 z z.",
"= J z.d.d.z.d.h.g.z.d.h.d.z.z.g.d.z.d.z.z.d.e.= 6.3   # X.d.e.e.e.d.d.z.; X 6.; [ z.d.d.z.d.z.d.z.z.d.d.d.z.d.d.z.d.d.d.z.1 n z.",
"- I z.d.z.d.h.h.h.h.h.h.h.g.d.d.g.d.z.d.d.e.z.- #.>.O   @ #.z.z.q.&.G <   & z.: [ z.d.d.d.d.d.z.d.d.d.z.z.d.d.z.d.z.d.d.z.< z z.",
"= I z.d.d.h.h.h.d.h.h.h.h.h.g.z.z.d.z.e.e.z.I % =.z.-     # = % @ o       5 z., 3 >.9.z.z.d.e.d.d.z.z.d.z.d.d.z.z.d.d.d.z.1 z z.",
"= I z.d.z.h.h.h.z.g.h.d.z.g.d.z.g.d.e.z.#.: . + 6.z.( X .           O + o X.z.1   X + - V 6.z.d.e.d.d.z.d.z.d.d.z.d.d.d.z.1 z z.",
"- I z.d.h.h.h.h.h.h.h.h.h.g.h.z.d.d.d.f O     + 6.d.z.: X O @ $ X X %   & d.z.t           + , 2.z.e.d.z.z.d.z.g.z.d.h.d.z.< n z.",
"= I z.d.g.h.h.h.h.h.h.h.z.d.d.e.d.e.;         + e.e.h.{ & - , * & @ @ $ R e.z.z .             + z d.z.e.e.d.d.h.z.h.h.p.z.1 z z.",
"- G z.d.h.h.h.h.h.z.g.z.d.d.d.z.z.;           o ! z.q.q.R % + + O o $ [ d.e.z.! o                 * R z.z.z.e.d.d.z.z.d.z.1 z z.",
"= I z.d.h.h.h.h.h.h.d.e.d.z.e.A & .         X   + ! d.z.X.& $ # $ & : q.e.( 1 @                     X , G 2.z.z.u.e.e.u.z.1 n z.",
"- I z.d.d.h.z.d.d.d.e.z.q.f # .           . p %   o : I =.>.< , - & - < $ X     . 1 =                     O : ! 6.z.z.q.z.1 z z.",
"- G z.p.d.z.g.d.e.z.d.z @               . p z.=.*     . O O + O . X .       . $ G z.2.=                       . @ 1 { z.z.< z z.",
"= I z.d.h.z.e.d.z.! %                 . p z.e.d.q.9 @                 . @ ; ! e.z.e.d.d.:                           o = { 1 n z.",
"- I z.d.d.e.z.6.1 X                   3 d.e.d.d.e.z.2.t , , ; , 5 9 A [ 9.z.z.e.d.d.d.e.e.*                             X @ A z.",
"= J z.d.e.d.I #                     * q.d.d.d.d.d.e.d.z.z.z.z.z.z.z.z.z.d.u.p.d.h.z.d.u.z.{ o                               I z.",
"- I z.e.z.f X                     + >.q.d.d.z.d.z.d.d.e.d.u.p.p.e.d.d.e.d.d.d.z.g.h.h.d.u.z.3                               G z.",
"= I z.g.V X                       9 z.u.d.z.d.z.h.d.d.z.z.d.h.h.z.z.d.z.h.d.z.d.z.d.z.h.d.z.e.%                             I z.",
"- D z.2.+                       $ 2.6.e.e.e.e.d.e.d.d.u.d.e.e.e.e.d.e.d.u.d.p.u.p.p.u.e.e.e.d.n                             G z.",
"- R z.p   .                     8 z.z.z.z.z.z.z.z.z.z.z.z.z.z.z.z.z.z.z.z.z.z.z.z.z.z.z.z.d.z.z.*                           I z.",
"= % < @                         * > ; ; ; ; ; ; : : ; ; ; ; ; ; ; ; : : : : ; ; ; : : ; ; ; ; , &                           G z.",
"p = - ; > ; : : , : : : ; : , : - - - - - - - - - - - - - - - - - - - - - - - - - - = - - - - - - > , : : : > : , > : : : ; X.z.",
"z.z.z.z.z.z.z.z.z.z.z.z.z.z.z.z.z.z.z.z.z.z.z.z.z.z.z.z.z.z.z.z.z.z.z.z.z.z.z.z.z.z.z.z.z.z.z.z.z.z.z.z.z.z.z.z.z.z.z.z.z.z.z.z."
};
