/* XPM */
static char *alm1q_nreeq[] = {
/* columns rows colors chars-per-pixel */
"64 64 256 2 ",
"   c #2C2B29",
".  c #322D2C",
"X  c #343332",
"o  c #3A3738",
"O  c #2F3332",
"+  c #362E1F",
"@  c #443A38",
"#  c #563C34",
"$  c #4D302A",
"%  c #673A2F",
"&  c #394838",
"*  c #3D5337",
"=  c #48463A",
"-  c #56473C",
";  c #47573B",
":  c #55543B",
">  c #7A483B",
",  c #69483B",
"<  c #53643D",
"1  c #72723C",
"2  c #3A3B43",
"3  c #3A3B47",
"4  c #3A374B",
"5  c #433D47",
"6  c #3B4647",
"7  c #3A4C51",
"8  c #395969",
"9  c #3A6674",
"0  c #3F6552",
"q  c #47484A",
"w  c #564948",
"e  c #495547",
"r  c #5C5A44",
"t  c #5C5B4C",
"y  c #565648",
"u  c #484857",
"i  c #554B56",
"p  c #4B5659",
"a  c #575856",
"s  c #694A45",
"d  c #794D44",
"f  c #635B49",
"g  c #7A574A",
"h  c #665858",
"j  c #7A5858",
"k  c #6C4D52",
"l  c #576644",
"z  c #536A53",
"x  c #65624C",
"c  c #6A6649",
"v  c #756A4B",
"b  c #657847",
"n  c #666652",
"m  c #767253",
"M  c #4B4D63",
"N  c #4B5467",
"B  c #565869",
"V  c #585C76",
"C  c #4D576F",
"Z  c #665B65",
"A  c #6A5C6F",
"S  c #4C6766",
"D  c #586567",
"F  c #496677",
"G  c #586579",
"H  c #5A7778",
"J  c #53736B",
"K  c #787768",
"L  c #676779",
"P  c #6A767A",
"I  c #77777A",
"U  c #6E6969",
"Y  c #864C3C",
"T  c #90533A",
"R  c #A65E38",
"E  c #B1643C",
"W  c #D46D39",
"Q  c #875547",
"!  c #945546",
"~  c #895B53",
"^  c #885044",
"/  c #8A644B",
"(  c #886756",
")  c #956C56",
"_  c #887858",
"`  c #9A7659",
"'  c #946F4D",
"]  c #A57A5A",
"[  c #B57856",
"{  c #AB6E4D",
"}  c #886964",
"|  c #997963",
" . c #867779",
".. c #967A77",
"X. c #88746A",
"o. c #A67C63",
"O. c #AD786C",
"+. c #A15D4C",
"@. c #D07950",
"#. c #D1785F",
"$. c #6B823D",
"%. c #6C8343",
"&. c #75854A",
"*. c #768E4E",
"=. c #59876A",
"-. c #738B6B",
";. c #75A66B",
":. c #97A93D",
">. c #898A52",
",. c #AB825C",
"<. c #B8885C",
"1. c #B89350",
"2. c #91AE4E",
"3. c #968979",
"4. c #8D8A6F",
"5. c #A98565",
"6. c #B68A66",
"7. c #BB9369",
"8. c #B88B74",
"9. c #BA9676",
"0. c #A78E78",
"q. c #8EAE70",
"w. c #ABAC72",
"e. c #AAB152",
"r. c #CB8C59",
"t. c #C68A65",
"y. c #CB9C6D",
"u. c #C59669",
"i. c #C59977",
"p. c #D99679",
"a. c #D28E6C",
"s. c #F4986C",
"d. c #E99977",
"f. c #F39B75",
"g. c #E8946D",
"h. c #D8A76C",
"j. c #CCA777",
"k. c #D0AA73",
"l. c #F5A57B",
"z. c #EBA579",
"x. c #E1A654",
"c. c #A9D477",
"v. c #B0E07B",
"b. c #D3D34B",
"n. c #DAD857",
"m. c #5A6685",
"M. c #587588",
"N. c #4E7890",
"B. c #666A87",
"V. c #787987",
"C. c #677A93",
"Z. c #767A94",
"A. c #69748A",
"S. c #727097",
"D. c #3C798B",
"F. c #847986",
"G. c #807BA9",
"H. c #3C8899",
"J. c #3F8EA1",
"K. c #488797",
"L. c #568698",
"P. c #54858B",
"I. c #668387",
"U. c #79858A",
"Y. c #658795",
"T. c #798795",
"R. c #719796",
"E. c #4C9AAB",
"W. c #4795A6",
"Q. c #529BAC",
"!. c #4F96AA",
"~. c #6996A7",
"^. c #7293AA",
"/. c #4BA5B7",
"(. c #56A6B7",
"). c #5AA2AC",
"_. c #66A7B7",
"`. c #75A7B1",
"'. c #73A498",
"]. c #59B1C5",
"[. c #6CB1C7",
"{. c #719DC9",
"}. c #77C8E9",
"|. c #74CCF4",
" X c #7CD1F3",
".X c #6DC9F6",
"XX c #7DC2DA",
"oX c #888488",
"OX c #978788",
"+X c #989388",
"@X c #888797",
"#X c #889498",
"$X c #989696",
"%X c #918F92",
"&X c #A58A87",
"*X c #A89688",
"=X c #B69686",
"-X c #A79698",
";X c #B89997",
":X c #B18D8A",
">X c #98AC94",
",X c #A9A498",
"<X c #B9A59A",
"1X c #B0AD8C",
"2X c #9799A5",
"3X c #8D92A7",
"4X c #AD9DA7",
"5X c #9BA8A8",
"6X c #89A6B6",
"7X c #92AEB2",
"8X c #A5A8A7",
"9X c #A9B7B9",
"0X c #B9B8BA",
"qX c #B1ACAC",
"wX c #C89987",
"eX c #D09D8C",
"rX c #E69E81",
"tX c #C9A888",
"yX c #C7A59A",
"uX c #D5AD8E",
"iX c #E7A486",
"pX c #F6AA84",
"aX c #F0B493",
"sX c #CAB3AC",
"dX c #E9B5A4",
"fX c #B0CF8C",
"gX c #B2CAB3",
"hX c #9AD09B",
"jX c #CACC9C",
"kX c #F0CA99",
"lX c #CDEB90",
"zX c #D1C6B2",
"xX c #EFCCAC",
"cX c #F8E8B9",
"vX c #D5F0A2",
"bX c #93B1C7",
"nX c #B5BCC6",
"mX c #A6B6CA",
"MX c #CABFC3",
"NX c #95C7D0",
"BX c #B2CAD0",
"VX c #9CDCED",
"CX c #99D6E7",
"ZX c #8CD6F0",
"AX c #A4DBE9",
"SX c #AED7ED",
"DX c #A9E3F2",
"FX c #B7E6F3",
"GX c #AAE4EF",
"HX c #9FE2F2",
"JX c #CDD1D0",
"KX c #EAD9C9",
"LX c #F4E9D0",
"PX c #CCDBE7",
"IX c #D2EBF3",
"UX c #F8F3E9",
/* pixels */
"}.T.4.[. X|.XX X{.bXNXbX`.9X8X7X5X0.5.9.w.1X>X1XjX>X_ o.,.w.` 0.7X X}.}.[.7XNX}.|. X X X XGXFXFXDXDXDXZX}.}.}.}.}.}..X.X.X.X.X.X",
"[.R.'.`.ZXXX).[.bXgXgXjXuXtXk.k.0.| 6.w.9.i.5.5.h.6.` ` <.7.u._ 5X`.6XoX4.0.1X>XZXZXZXZXVXGXIXFXFXDXAXZX}.}.}.}.}.}.|.|.|.|..X.X",
"6X-.Y.R.ZX_.R.1Xj.k.k.h.h.6.w.u.) _ | u.y.7.,.5.7.r./ ) ` ,.u.5.0.0.4.5...OX*X1X$XAXDXFXFXIXIXIXFXFXDXVXZXCXZXZX XZXZX X X|. X|.",
"V.3.>X*X>X>X+X9.5.9.j.9.7.y.<.1.( ( ` ( <.,.` 7.6.6.g / ` _ ,.5.y.uXk.uX0.OX0.1X+XBXFXFXGXGXGXGXAXAXAXSXAXVXCXVXVXHXHXVXVXZXZXZX",
"X.0.9.7.9.k.6.` ,.y.y.i.<.,.,.,.` Q ` o.| 5.9.6.6.5.( / ,.u.` 5.y.y.h.y.7.9.uXw.1X9XAXNXCXVXCXCXCXAXAXAXAXAXCXVXDXDXDXDXDXHXVXZX",
"o.<.] ,.u.5.6.` ` ` _ ] ' ,.1.7.u.' ' 5.` u.5.u.6.5./ ( <.,.,.6.u.7.h.u.i.7.h.tX+X+XF.%X>XNXCXCXCXAXCXCXCXCXVXVXVXHXVXVXHXVXVXVX",
",.6.5.7.u.` ,.g g ,.` ) ` <.,.y.7.' ! 1.] | <.h.h.9.) ~ ,.6.,.7.9.O.i.u.y.u.h.y.0.+XoX+X*X9XAXCXAXAXAXCXCXCXAXVXVXVXHXVXVXVXVXZX",
"t.<.,.r.u.6.( g 5.,.k.7.' 6.j.k.<./ Q ,.,.` y.h.k.k.` g / ) 4.y.y.8.u.7.u.y.y.i.9.&XOX$X1X,XCXVX7X`.NXAXAXAXAXAXDXDXHXHXHXHXHXDX",
"t.6.<.r.7.7.' / 9.` 7.7.) ` / 5.` Q , / / ' u.' ,.j.6.) g g 5.i.j.y.y.u.6.y.y.i.u.9.OXoX*X1XBXNXY.R.'.NXGXbXAXGXDXDXAXGXAXDXNX6X",
"<.[ <.t.5.r.` ~ 5.] 7.o.g ] 7.| ' Q g g g ' t.' ' ] u.<.( ] 6.8.y.u.u.u.u.y.y.y.u.8.9.i.tXtXtX+XU.#X'.6XNXNXFXFXBXNXAXAXAXAXD i ",
"5.9.>.>._ r.[ g ) 6.j.( g ` y.,.] ] [ , g ' { / ] ( ] r.5.6.a.7.h.8.a.u.8.i.y.y.u.7.i.r.u.j.uX=X0.tX>XR.#X1X9X8X5X8X8X3XmXU.q e ",
"] 4.*.&.>.,.<.` g j g v g ` ,.` ) 5.r.~ / { { 5.,.] ,.t.t.<.y.5.8.8.i.u.5.7.i.=X=Xj.<.<.w.tXtXk.0.tX9.=X+X4...2X$X2X4X4X%Xf t t ",
"6.>._ >.>.>._ ' ` d j ] / ` 6.<.) ` r.[ ] ' { t.5.t.] o.u.t.u.6.8.8.8.wX8.0.F.3XmX1XT 1.j.tXuXuXtXtXtXuX1Xo.X.$XF.%X$X-Xm n n n ",
"` &.< 1 m &.$.%.,.6.] [ ' g / ] t.) [ t.{ d / ,.` ] t.6.u.u.u.8.9.8.0.i.3.3XC.bX9XqXg , <.h.h.k.uXk.y.w.<.{ 6.sXyXyX-XK n n n n ",
"m >.< ; b l b &.>.6.t.6.] ] s ` p.5.<.t.[ ) d ` ` o.i.8.9.i.3.J 0.=X=X:XF.T.C.mXBX+X- # ' { { ] 5.5.6.6.5.8.] tXqX-X4.y y e e - ",
"&.>.b : l l : b >.i.u.i.i.9.] 5.i.6.O.7.6.6.g k | 9.=XtX=XK J J -.;XyX:XOXm.m.mXnXs $ # g a.[ j ;X:X:X*X:X:XrXa.#X'.a y t w w = ",
"m &.b %.b ; < b 4.0.0.9.i.i.wX8.i.8.0.i.8.8.) } :XyX<X-X&XS 0 N J ,X;X-XG.m.C.mX .# 5 @ ^ rXf.a.p.rXrXrXrXd.d.g.8.%X@XR.#Xi @ o ",
"; b < < b ; b b &.P -X=X=X:X9.i.i.=X:X=X:XwX0.&X-X-XoXJ P D S J J I H U.@Xm.C.@X% % % $ > d.f.f.g.g.f.d.pXrXrXwXa.F.T.T.Y.P o o ",
"= e * & < b -.&.&.&.3.wX:X;X&X:X=X=X=X;X:XyX;X:XOXF.D 0 J S S =.=.S S U.V.V A s % d d > ^ g.f.f.d.p.p.8.O. .U A A Z.$X2XU.A.i q ",
"* l & & b -.-.&.&.&.-.-X-X-X4X;X;X-X+X-XqX4XyX@XV.U.N S S z 7 S J n U  . .K 5 # d k ^ k ~ wX8...} Z B B B A F.F.yXyXsXdXsXV.q @ ",
"l %.l p U.T.@X; b ; e 3.4X2X;X&X-.A.#XU.$X$X$X$XoXD 6 S D D S J D I  .V.F.oXZ 5 5 5 5 5 5 C M M A L F.wXrXrXrXiXrXiXrXsXsXF.. 4 ",
"%.b * U +X*Xw.v ; ; ; J } #.[ #.j 4.3.=.=.3X5XsX2X@X5X#Xp H P P S @XF.G.G.%Xh 5 i i 5 5 j ..O.wXp.rXrXf.d.g.d.p.eXyXqXmX2XA 5 w ",
"z l * X.` o.5.3.1.< 3.U ^ { [ ] ) ] =.=.=.J mX9XnXIXJXPX9X2X9XU.p Q ~ ~ ~ +.+.~ ~ Q ~ Q #.f.s.s.s.s.g.p.rXeXyX4X2XG.G.3XF.5 5 i ",
"< ; O U sXMXnX2Xx._ 8X) m #.1.=.-.4.=.S J A.6XmXmXzX/ BXBX#XBXA.j T ^ ! ! Q ! ! ! ^ d Q g.s.s.s.f.d.eXyX4XG.G.G.V B.3XKX-X@ u q ",
"& & & e oXP  .y.<.-.6XP ;.4.-XR.=.z =.`.`.{.^.^.7X3.' JX5XZ.JX@Xj ~ g ~ d ^ ^ d Y Y % { d.g.rXeX4X4XG.A B S.qX2XB.F.MXUXF.5 i 5 ",
"& & & & & m r.5.U b #XJ =.5X4XqX-.0 M.^.`._.~.mXJX-X( nX9XP 3X6XC.V V V A V B Z Z h k O.;X4X3XS.S.S.Z.V B.3XKXsXO.O.KXUXF.5 5 i ",
"& & & & | 5.( D y *.7XJ S -X0.&X%XU.@XV.B.T.zXcXUXKX&XnXIX3X%X..OXS.B 4 5 V V u M V G V.S.A M i S.MX4XA k ;XLXxXdXeXUXUXZ 5 M B ",
"& O & _ X.n h = e 0XBXBXsX8XyXqXzXJX3X@XA.*XkXkXcXxX4XnXUX%XMXF.} B.F.o u B.B.@ 4 V L u 5 V m.B.4XLXyX#.{ yXUXdXpXdXKXMXk 5 B V ",
"& & x U k : = * ; 5XPX=X=X*X=X*X+X#XN.Z.m.F.kXxXkXxX,XBX1X9XIX2Xi 3X&X$ i B.2X5 5 A V h A A j k sXLXxXd.f.rXdXrXrXdXxXsX5 u V B.",
"* e h - = = l e -.gXsX' [ *XI.U.T.L.N.N.m...kXkXkXaXoX1Xq.8X:XY % I ~ % 5 3X-X# w V OXe.b.1.a.t.xXLXdXpXrXf.g.rXpXpXdXF.5 i V B.",
"* y s - = b 4.oXPXPX<X_ [ u.U.1X,X@XN.!.N.*XaXaXaXtXK *.2.-.d ! ^ Y Y Y s @X| % q B.n.n.n.b.h.l.p.iXaXpXpXf.f.pXiXyX$XA u u B.B.",
"e e : - r 0.1.5.xXLXsXA.{ g.<X0X5XU.T.N.$XuXtX=X3.0.2.%.>.q.fX .j ! ^ d > ^ ! ! k 3Xn.b.b.n.h.pXl.l.iXpXf.rXiXyXG.S.Z.Z i u G V ",
"N.S % - b w.0.1.x.jXsXZ.1.7.e.v.gXU.U.#X1XtX3.1X,X2.*.$.b q.lXgXV.A j ^ ^ ^ ^ ! s X.1.b.n.b.x.pXrXpXf.pXiX4XG.S.B.F.0XMXB i 4 4 ",
"Q.Q.h r K <X9.x.x.9.sX#X[ >.e.c.#X~.B.qXxXdXzXzXfX< $.*.*.q.jX>X#XM M A j ^ ! ^ > > | >.1.x.s.f.f.f.iXyX3XZ.V.F.2XsXPXJXi 5 5 4 ",
"_.P.g h 5.<.r.1.5.h.k.#X' 2.2.2.z ^.7XgXBXJXgXfX>X7 < $.%.w.oXB.Z.M 5 5 M A ~ d Y Y Q 1.1 - g.l.eX;X@XS.V.F.$XqXsXKXUXMX5 B B B ",
"H d = D ' { ( %X,Xx.yX5X,.$.2.2.>.fXBXhXhXhXgXgXU.%.$.1 4.aXp.A C.L M i 4 M C V k s o . $ & h &XF...V V.%XqXyXdXdXsXMXF.u B B B ",
", # F J N.H 7XBXqXgXNXc.c.$.*.2.2.2.hX'.hX7XgX#Xl $.%.z U f.@.> V B.L B 5 M 5 M V 5 u O 4 X 3 7 4 5 %X,XyXuXaXdXuXk h i V Z B B ",
"# N.Y.J ].H Y.6XhX7X;.*.2.*.:.:.2.*.9XJXJXLXUX$X* l d Z C.+.% ^ ^ A m.B.L M 5 Z U 5 q u 5 O o X a ;X<XtXrXaXaXaX;X-Xh i B V V B ",
"F _.B (.).D W.).NX7X=.*.:.2.;.$.*.$.jXLXLXLXLXD * l ! F.@Xd Y d ^ d Z m.B.L M i 5   5 % $ B Z *XsXyXiXpXpXpXwX&X4X-X= 5 u i A V ",
").D L.[.P P.(.).L.P.(.'.q.2.2.%.2.2.e.cXcXLXJXG 7 6 ~ ) @X^ % Y ^ % ^ j B.B.u 4 $ $ $ % } -X} eXp.l.l.l.aX:X@ @  .U y w o 2 5 u ",
"H G ].I.G _.].).D.7 N.]._.q.:.$.2.2.1 jXLXcXsXM.N O e Q } d ^ Y > ^ ^ Y k u 2 $ T E E R i.eXg.g.pXpXaXuX8XZ . X w r n n t = o o ",
"p /.Q.u /.].]._.9 8 F ].(.'.2.2.b $.b cXcXcX8Xm.F 6 o j ! ^ ! Y > O.wX5 2 o O d E R E R r.s.f.pXpXiX4X@XoXh o = w f h m m y l - ",
"E.~.u J.]./.(.N.8 9 C _.(.].q.2.$.< kXLXcXLX9XH p O & q ! T T Y ^ { 0.X @ # > % Y E E R l.l.pXiX:XV.I oXOXw q w y l n m t f n x ",
"P.p K.]././.L.V 8 8 F _.(._.q.:.*.jXvXjXvXlXvXvXfX4.. e U ! ! > ^ ^ 5 O.a.#.R [ , % , { l.pX=XI L  .,XKX3.@ @ = n x n c f m x n ",
"6 N.].(./.(.C m.8 8 P.).(.].=.$.: fXv.v.v.lXlXlXcXfX$ j >X~ ^ ! > s O i #.{ T #.0.[ @.g.8.F.L  .&XsXKXxXf : = @ = r m : n m x l ",
"K.E././.E.M.C P.F 9 ^.(.(.[.J * ;.v.v.fX1X9XgXgXvXw.+ v >Xa ! ! % i u 4 [ ! E a.$XR W } F.K %X<XxXxXkX} = : : y = o @ c v m c r ",
"W.E.W.L.m.A.C.H 9 Y._.(.(.[.z ; c.c.fX6XNXGXIXJXlXfX: 4.w.3 k +.Q Z P F O.Y @.r.m ' i.8XzX,XzXxXaXxX=Xe x : c : = : @ = c K c v ",
"W.E.L.m.M.bXbX9 H `./.].].`.R.q.c.fXfXgXhXgXgXvXlXlXc.#Xa O q ! ^ A Z.Y.~ % @.W k $XsXzXKXdXiXpXaXiXr y : c v r f : : = @ = f *.",
"K.M.m.C.bXPXmXN.^.L./.].(._.).~.fXc.c.v.c.v.lXfXq.z 7 & 7 4 4 k +.} 6XZ. .O.x.{ OX{ r.uXaXpXaXaXeXn r f c g c c r v 1 : = . o : ",
"M 7 C.mXPXSX^.^.!././.(._._.).(.L.c.v.c.q.-.z 6 O & 6 7 q u 4 5 ~ +...9XPXdXW 8.PX[ @.l.pXaXdXF.B r c m 4.c c c 1 1 v c = . X . ",
"7 M.bXPXSX^.^.N././././._.Q.Q.).(.'.b z < ; e 6 & 7 6 6 4 M 5 4 i +.O.PXIXyXW yXIX0.@.aXaXF.M 4 y c v 4._ b v v v / m v o   o o ",
"7 M.6XbX^.^.N.W./././.~._.(.Q.(.(._.a e p p u e 6 e e l u B M 5 5 k sXIXSXp.W nXIXwX@.;XZ 5 4 Z.K : 3.4.m m g c _ v _ :   . X @ ",
"7 8 N.R.^.N././././._.^.(./.Q.Q.Q._.A.V m.m.p e z a t y M C i u 5 5 JXPXBXa.@.PXBXO.g.#X4 u 5XJXqXoXU 4._ v f ` _ v m o . o . o ",
"8 Y.3XL.D.W.E.E./._. .H (.(.Q.Q.!.).L.D B z t a a t y t M N M M 5 i BXPXPXa.a.7XL $ 3.mXV gXUXMXoXD   r 5.c m >.c / -   @ w w = ",
"6X6XN.H.W./././.K.P w G (.E./.Q.Q.(.P.t y y t t t n n a B B M M u B mXPXBX@.r.F P o I BXJXUXUX>X6 u p   ; c 5._ ' c     . = w a ",
"L.H.W.J.E.W.W.K.N w - G /.Q.Q.Q.Q.(.Y.t t x t t t t a a m.V M M M u #XPXU.% ( G P a 2XJXLXKXX.D q 2 q Z o & >._ _ =         q a ",
"H.J.J.W.J.W.L.N w s @ G /.W.E.E.Q.Q.I.x n t t t t t t u V V V B u 6 V.PXI   D P P I.JX0X1Xt = D & 6 6 i o 6 & m c       X = @ o ",
"K.J.H.J.W.M.N B k # q M.E.E.E.E.!.!.I.t a t t a i u q 7 C B.m.V u o D BXBX= D V.U 9XPXI = t f y q u q & O Z 5   X +   X @ r t = ",
"H.W.K.L.V N B k # 2 B P.E.W.E.E.!.W.H a a y q u 3 3 M M B.m.C V M o q U 0X9XU.I 5XBX#X$Xr n c x f t p q X u o i X   X @ r f c y ",
"W.N.M.N C V s s @ M N K.E.E.E.E.!.W.V q u 2 O u u u C V B.C C m.B 6 6 p D #X2X#X@XD P @X  r c n x f y e o p o U &   X r f f x : ",
"M.m.8 V Z s s o p G J E.E.E.W.E.W.L.6 O C 4 M m.B.m.M V V m.V V.D 2 q 6 p p B D B p #XV   o f x x f t t y w o i . . . y c c f r ",
"M N B h g , o u F N F W.W.E.J.J.W.N.u M V S.B.V 7 4 7 V V m.V B.p 6 e 7 6 q p u p U.T.4 o O = x x f f t y y & p @ o . . : c : c ",
"B h d j a 5 u G 8 N F W.E.W.E.W.H.M.m.m.C 5 5 4 M M C m.V m.C D p 6 q u q p q 7 V.5XV O o o . = x c f f y y e q = w @ . . o f c ",
"s ~ d 5 4 7 B.F 8 F W.W.W.E.W.W.N.V M 4 4 M M B C M m.m.G V G B q 6 q 7 6 p a D R.3XM O 2 o o O : x n f f y y O @ s y q o . @ f "
};
