/* XPM */
static char *aew1p_rznfy[] = {
/* columns rows colors chars-per-pixel */
"64 64 222 2 ",
"   c none",
".  c #0B0B08",
"X  c #090701",
"o  c #171613",
"O  c #1C160F",
"+  c #221D12",
"@  c #271A0C",
"#  c #29241B",
"$  c #312717",
"%  c #30311E",
"&  c #2C2A25",
"*  c #392D27",
"=  c #3A352B",
"-  c #3A3A2C",
";  c #363525",
":  c #3C3C35",
">  c #373833",
",  c #42392D",
"<  c #463E35",
"1  c #543B3E",
"2  c #3E4133",
"3  c #42443B",
"4  c #4A4C3B",
"5  c #474737",
"6  c #524B3A",
"7  c #55513B",
"8  c #595638",
"9  c #5B613A",
"0  c #62643D",
"q  c #4B4B44",
"w  c #554C40",
"e  c #4E5442",
"r  c #545544",
"t  c #5B5343",
"y  c #565945",
"u  c #52524B",
"i  c #5C5C4A",
"p  c #59594A",
"a  c #5B5B56",
"s  c #614C42",
"d  c #625C47",
"f  c #625D4B",
"g  c #665745",
"h  c #745A48",
"j  c #7A5858",
"k  c #5F6149",
"l  c #5E6054",
"z  c #64644B",
"x  c #6D634C",
"c  c #6C6A4D",
"v  c #686746",
"b  c #726B4C",
"n  c #75664C",
"m  c #626356",
"M  c #6D6651",
"N  c #6C6A54",
"B  c #64655C",
"V  c #6C685C",
"C  c #716752",
"Z  c #736C53",
"A  c #726C5D",
"S  c #796E56",
"D  c #757253",
"F  c #76735B",
"G  c #7D7B5D",
"H  c #7B7657",
"J  c #71724D",
"K  c #656663",
"L  c #6B6C64",
"P  c #766E65",
"I  c #6D7266",
"U  c #7C7B6B",
"Y  c #777669",
"T  c #777871",
"R  c #797A72",
"E  c #847C5D",
"W  c #817658",
"Q  c #856961",
"!  c #837C65",
"~  c #877763",
"^  c #807E75",
"/  c #927F73",
"(  c #987A6E",
")  c #898056",
"_  c #89855C",
"`  c #89845D",
"'  c #98915E",
"]  c #848265",
"[  c #8B8464",
"{  c #8E8963",
"}  c #84826C",
"|  c #8D8A6D",
" . c #8C846A",
".. c #948D66",
"X. c #928C69",
"o. c #958A67",
"O. c #969064",
"+. c #939069",
"@. c #99936B",
"#. c #9F996D",
"$. c #838474",
"%. c #878877",
"&. c #948D75",
"*. c #9B8C7B",
"=. c #978878",
"-. c #8D9273",
";. c #959275",
":. c #9A9473",
">. c #9E9976",
",. c #92917C",
"<. c #9B947D",
"1. c #9D9A7B",
"2. c #959977",
"3. c #A29A6C",
"4. c #A29C72",
"5. c #A2957C",
"6. c #A29D7B",
"7. c #A58D7C",
"8. c #9FA07B",
"9. c #AAA27A",
"0. c #B1A97D",
"q. c #8D8E89",
"w. c #8F8F85",
"e. c #938D83",
"r. c #8F9187",
"t. c #939383",
"y. c #94948C",
"u. c #9B9A8C",
"i. c #9A9983",
"p. c #9B9B92",
"a. c #9B9B99",
"s. c #959792",
"d. c #A39A83",
"f. c #A79B86",
"g. c #B1988E",
"h. c #9DA389",
"j. c #A4A084",
"k. c #ABA583",
"l. c #A4A28C",
"z. c #ADA38C",
"x. c #ADAB89",
"c. c #B2AB84",
"v. c #B6AA8A",
"b. c #BDB289",
"n. c #B9B085",
"m. c #A4A493",
"M. c #A9A394",
"N. c #A8A997",
"B. c #B4A594",
"V. c #B7AA93",
"C. c #BAAD9A",
"Z. c #B6B194",
"A. c #BBB495",
"S. c #BAB69B",
"D. c #ADADAB",
"F. c #A8A8A3",
"G. c #AFB0AB",
"H. c #BBBAA1",
"J. c #B8B6AB",
"K. c #B5B5B1",
"L. c #BDBBB3",
"P. c #BBBBBA",
"I. c #B6B8B6",
"U. c #BEABA3",
"Y. c #C0AE9E",
"T. c #C2BA99",
"R. c #C7BB95",
"E. c #C3B88B",
"W. c #C6BBA8",
"Q. c #D0BDAF",
"!. c #C7BEB7",
"~. c #BEC0BB",
"^. c #CDC29C",
"/. c #CBC3A4",
"(. c #CCC4AA",
"). c #CCCAA7",
"_. c #D4CBAC",
"`. c #D5C7AA",
"'. c #C3C2BD",
"]. c #C9C8BC",
"[. c #D4C4B3",
"{. c #D5C9B2",
"}. c #DBCDB3",
"|. c #D5C5B9",
" X c #DDD1B3",
".X c #DED0BA",
"XX c #E3D4BC",
"oX c #E5DABC",
"OX c #E6D8BA",
"+X c #C0BEC0",
"@X c #C5C5C5",
"#X c #CCCCCA",
"$X c #C9CAC4",
"%X c #D1CFCB",
"&X c #D2CEC4",
"*X c #CED0C7",
"=X c #D2D2CC",
"-X c #D6D6D5",
";X c #DADAD6",
":X c #DCDCDC",
">X c #D7D7D8",
",X c #ECDCC3",
"<X c #E6D4C4",
"1X c #E0DCD9",
"2X c #DFE0DF",
"3X c #E1E1DF",
"4X c #E2E0D6",
"5X c #EBE8C5",
"6X c #DFDFE0",
"7X c #DFE0E0",
"8X c none",
"9X c none",
"0X c none",
"qX c none",
"wX c none",
"eX c none",
"rX c none",
"tX c none",
"yX c none",
"uX c none",
"iX c none",
"pX c none",
/* pixels */
"                                                                                                                                ",
"                                                                                                                                ",
"                                                                                                                                ",
"                                                     F                                                                          ",
":X9X8XqX:X0X:XwX:XwX:X0X:X0X8X8XqX:X0X:XwX:X0XqX=X: 5 B #XwX8X8X8XeX2XwX:XwX:XwX:XwXqXeX8X8X8X8XeX6XwX:XwX:XwX:XwX:XqX8X8X8X8X8X",
"0X3X0X:XwX:XwX>XwX:XwX:X0X2XqX8X8X9X:XwX:XwX>XwX3XI.x d u #XwX3XqX2XwX:XwX>XwX:XwX2Xs.L >X8X8X0X6XwX:XwX:XwX:XwX:X0X:XqX8X8X8X8X",
":XqX:X0X:XwX>XtX:XwX:XwX:X0X:XqX8X:X0X:XwX:XwX>XwXqXN.M i Y qX8X2X9X:XwX>XtX>XrX3Xu.i q >X9X8X:XeX:XwX:XwX:XwX:XwX:X0X6X8X8X3XqX",
"0X8X9X:XwX:XwX:XwX:XwX:X0X:X8X8X8XqX8XwX:XwX:XwX>XtX-XL x t @XeX8X2XwX:XwX>XtX3Xp.F f R wX8X8X0X6X0X:XwX:XwX:XwX:XwX6XqX8X8X8X8X",
":XqX8X0X6X0X:X0X:XwX:X0X6XqX8X8X8X2X9X:X0X:X0X:XwX>XtXu.Z M q.iX9XeX:XwX:XuX>Xe.! ! 3 K.wX8X8X3X0X:X0X>XwX>XwX>X0X6XqX:XqX8X3X8X",
"qX8X8X:XqX6X0X:X0X6X0X:XqX6X8X8X8X8X8XqX:X9X:X0X2XqX8X%X .~ $.@XD.>XeX:XwX-Xu.5.d.i a 8X8X8X8X8X8X0X3XqX3XqX8XqX3XqX8X8X8X8X8X8X",
"8X8X8X8X8XqX8X8X8XqX8X8X3XqX8X8X8X8X8X8XqX3XqX3XqX8XwX#Xf.5.P > o D.eX0X%Xf.v.f.! > I.tX3X8X8X8X8X8X8X8XqX8XqX8XqX8X8X8X8X8X8X8X",
"8X8X8X8X8X8X8XqX8X8X8X8X8X8X8X8X8X8X8X8XqX8X8X8X8X2XwX$X=.B.V X   T tX%Xd.Y.5.P = y.tX3X8X8X8X8X8X8X8X8X8X8X8X8X8X8X8X8X8X8X8X8X",
"8X8X8X8XqX:X0X6XqX8XqX8XqX3X8X8X8X8X8XqX3XqX6XeX2X9X2XwXY W w o . K wXM.f.d.F - s.wXqX3XqX8X8X8X6XqX3X9X8X0X6X0X3XqX3XqX8X8X8X8X",
":XqX3XqX8X0X:X0X:X0X:X0X:XqX8X8X8X6XqX:XwX:XwX:XwX:XtXI.- , 6 < & R '.<.=.f q ~.wXqX6XqX3X8XqX3XqX:X0X:XwX:X0X:X0X:XqX8X8X8X8XqX",
"qX8XqX:XwX:XwX>XwX>XwX:X0X:XqX8X8XqX6X0X:XwX:XwX:X0X8XP $ t x g & & U *.t u 2XqX0X:XwX6XqX8X3XqX8XwX:XwX:XwX:XwX:X0X:XqX3X8X8X8X",
":XqX3X0X:XwX:XrX>XtX:XwX:X0X:X8XqX6X0X:XwX:XwX:XwX>XiXa = v W x h ; 6 d V 8X2X0X:XwX:XqX:XqXqX:X0X:XwX>XwX:XwX>XwX:X0X3X8XqX3X8X",
"0X3X0X:XwX:XwX>XtX>XwX:XwX8XqX8X3XqX:X0X:XwX:XwX>XiX>XV * x W 7 C x C p.iX:XwX:XwX:XwX:XqX8X8XqX:XwX:XwX>XwX:XwX:XwX:XqX8X8X8X8X",
":XqX:X0X:XwX:XwX:XwX:XwX:XqX2X8XqX:X0X:X0X:XwX:XuXL.$.M h S C * , S M.pX>X0X:XwX:XwX:XqX3X8X8X3XeX:XwX:XwX:XwX:XwX:X0X3X8XqX3X8X",
"qX3XqX3X0X:XwX:X0X:X0X:X9X3XqX8X8XqX3X0X6X0X:XiXu.} Q.7.x b | ~ =.~ &X3X0X:XwX:X0X8X0X2XqX8X8X8X6X0X6X0X:XwX:X0X8XqX:X8X3X8XqX8X",
"3XqX8X8X8XqX8X0X:XqX8X8X8X8X8X8X8X3XqX2XqX:XuXK.- B..X,Xz.D ] 6.k. .-X0X8X0X:XqX:XqX3XqX3X8X8X8XqX7XqX8XqX6X0X:XqX8XqX8X8X8X8X8X",
"8X8X8X8X8X8X8X8X8X8X8X8X8X8X8X8X8X8X8X8X8X8X0XK < l.|.<X{.| G | &.&.=X9X8X8X8X8X8X8X8X8X8X8X8X8X8X8X8X8X8X8X8X8X8X8X8X8X8X8X8X8X",
"8X8X8X8XqX:XqX8XqX8XqX8X8X8X8X8X8X8X8XqX8X8X0Xa < *.Y.B.7.C.[ ;.>.>.].qXqX8XqX3XqX8XqX3X8X8X8X8X8XqX8X9X:XqX8X0X8X8X8X8X8X8X8X8X",
":XqX8XqX7X0X:X0X:XwX6X0X:XqX8X8X8X3XqX:XqX6XwXq ; C *.=.g.[.;.:.9.c.W.0X:X0X:X0X:X0X:XqX3X8X8X3X8X8XqX3X0X:XwX:XqX:X9X8X8X8X3XqX",
"qX8XqX6X0X:XwX>XwX:XwX:X0X:X8X8X8XqX6XqX:XiXP.& * g ( U.Q.[.B.:.9.c.(.:XwX:XwX:XwX:X0X:XqX8X8XqX:X0X>XwX>XwX:XwX:X0X:X8X8X8X8X8X",
":XqX3X0X:XwX:XwX:XwX:XwX:X0X8X8X8X:X0X:XwXqXI.+ 6 h Q B.W.Q.W.g.@.k.W.yX>XrX>XrX:XwX:X0X8XqX8X3X0X:XwX:XrX>XwX:XwX:X0X8XqXqX:XqX",
"0X3XqX:XwX:XwX>XwX:XwX:X0X:XqX8X8XqX6X0X>XtX>Xp , h n ~ d.*./ g.>.k.4X:XrX>XwX>XwX:XwX:XqX8X8XqX6X0X:XwX>XtX>XwX:XwX:XqX8X2X8X8X",
":XqX2X0X:XwX:XwX:XwX:XwX:XeX:X8XqX3X0X:XwX>XiXh.C P g h h Q C.4.O.S.:XwX>XrX:XwX:XwX:X0X:X8X8X3X0X:XwX:XwX:XwX:XwX:X0X:X8X8X3XqX",
"qX8XqX6XwX:XwX>XwX:XwX:X0X3XqX8X8XqX6X0X:XtX@XB _.5Xf.1 j Y.>.W h.;XwX:XwX:XwX:XwX:X0X:XqX8X8XqX6XwX:XwX:XwX:X0X:X0X8XqX8X8X8X8X",
"3X8X3XqX:X0X:X9X3X0X:X9X3XqX8X8X8X3XqX:XqX9X+X# ! /.( j V.4.J o.:XeX:X9X2XeX2XeX:X0X3X8X2X8X8X8XqX:X9X:X0X:X0X:X0X3XqX3X8X8X8X8X",
"8X8X8X8X8X8XqX8XqX8X8X8X8X8X8X8X8X8X8X8X8XwX!.* Q Q j M.b.' ) k.wX7X8X8X8X8X8X8X8X8XqX8X8X8X8X8X8XqX8XqX3XqX8XqX8X8X8X8X8X8X8X8X",
"8X8X8X8X8X8X8X8X8X8XqX8X8X8X8X8X8X8X8X8X8X9X-X4 1 Q V.OXXXR.0.@.].wX0XqX8X7X8X8XqX8X8X8X8X8X8X8X8X8X8X8X8X8X8XqX8X8X8X8X8X8X8X8X",
"8X8X8X8X3XqX:X0X:X0X:XqX3XqX3X8X8X8X8X6XqX:XwXa.| W.W._. X/.0.@.F '.'.:X7XyX2X9X:XqX2X8X8X8X8X8X8X8X9X:X0X:X9X:XqX:X8X8X8X8X8X8X",
"qX8XqX6X0X6XwX:XwX:XwX:XqX8X8X8X8XqX3XeX:X0X2X2X=X^ S (.OX{.n.3.` D v F $.t.8X:X0X:X0X8XqX8X8XqX:X0X:XwX3XwX:XwX:X0X6XqX8X8XqX8X",
":XqX8X0X:XwX:XwX:XwX:XwX:X9X3X8X8X3XeX:XwX:XwX8X%X- F Q.<X}.b.3.{ G D c z 8 Y 0X:XwX:X0X8X8XqX3X0X:X0X:XwX>XwX:XwX:X0X3X8X8X3X8X",
"qX3XqX:XwX:XwX>XwX:XwX:X0X:XqX8X8XqX2XwX:XwX>XpX$.* N S.XXXXE.3...E [ E Z Z 9 M.iX:X0X:XqX8X3X9X:XwX:XwX>XuX:XwX:XwX8XqX8X8XqX8X",
":XqX8X0X:XwX:XwX:XwX:XwX:X0X3X8X8X2X0X:XwX:XwX>Xp - d M..XOX`.3.O.[ [ [ ! C v ! >XwX:X0X:XqXqX:X0X:XwX:XwX:XwX:XwX:X0X6X8X8X3X8X",
"qX8XqX:X0X:XwX:XwX:XwX:X0X:XqX8X8XqX:X0X:X0X8X-X3 5 7 <.}.,X}.0.O.) [ ~  .[ d S L.8X0X3XqX8X8XqX7XwX>XwX:XwX>XwX:X0X:XqX8X8X8X8X",
"3X8X3X0X6X0X:XwX:XwX:X0X:XqX8X8X8X3XeX3X0X>XuXG.- 5 i i.{.,XXXn.O.) { [ E :.D b M.wX:XqX8X8X8X:XqX6X0X:XwX:X0X:X0X:XqX8X8X8X8X8X",
"8X8X8X8XqX7X0X:XqX6XqX8XqX3X8X8X8X8X8X8X:XqXwXq.; 4 z d. XoXoX^.3.) { [ E X.X.b &.2XqX3X8X8X8X8X8XqX3XqX8XqX3XqX8XqX2X8X8X8X8X8X",
"8X8X8X8X8X8X8X8X8X8X8X8X8X8X8X8X8X8X8X8X8X8XtXR ; 4 y :.}.oX5X^.9._ _ o.[ ..:.Z | >XqX3X8X8X8X8X8X8X8X8X8X8X8X8X8X8X8X8X8X8X8X8X",
"3XqX8X8X8XqX3X9X8XqX6XeX8XqX8X8X8X8XqX3XqX3XwXL 2 5 y ;._.OXoXT.9.+.` | o.+.6.D ] ;XqX8X8X8X8X8XqX8XqX8XqX8XqX8XqX3XqX8X8X8X8X8X",
"qX3XqX3XqX:X0X:XwX:XqX:XqX3X8X8X8X8X3XeX:X0X:XB 2 4 v ;.(.oX XA.8.+.+.O.+.3.c.H Z ].wX2XqX8X8XqX:XqX:X0X:X0X:X0X:XqX6X8X8X8X8X8X",
":XqX:X0X2XwX:XwX:XwX:XwX:X0X8X8X8X3XeX:X0X:XwXB 2 4 k 2.^.}. X/.h.2.8.2.#.0.E._ b J.9X8X6X8X8X8X0X:X0X:X0X:XwX:X0X:X0X8X8X8X3XqX",
"0X8XqX:XwX:XwX>XwX:XwX:X0X:XqX8X8XqX:XwX:XwX>Xl 5 e y ] T.{.}.).-.-.x.1.9.E.R.G D d.3X9X8X8X8XqX6XwX:XwX:XwX:XwX:X0X3XqX8X8X8X8X",
":XqX6X0X:XwX>XuX:XwX:XwX:X0X:X8XqX6X0X:XwX>XuXB 4 y e F Z._._._.8.I N.2.k.`.).m E N 3 >X8X8X8X3X0X:XwX:XwX>XuX:XwX:X0X:X8X8X:XqX",
"qX8XqX:X0X:XwX>XwX:XwX:X0X:XqX8X8XqX6X0X:XwX2XB 4 p 2 m j././._.S.V h.;.Z.oXN.y F F   y.iX6X6XqX6X0X:XwX:XwX>XwX:X0X6X8X8X8X8X8X",
":XqX8XqX6X0X:XwX:XwX:X0X6X0X8X8X8X:XqX:X0X>XiXU 2 p R 4 ] Z./._.S.l 2.-.v.{.r.e G F   u tX6XqX8XqX6X0X:XwX:XwX>XwX6X0X8X8X8X8X8X",
"8X8X8X8X0X:X0X8X0X:XeX:XqX8X8X8X8XqX8XqX3XqX0Xy.% B 0XF.m | 1.6.c 2 %.h.H.$XwXI F N   > qX8X8X8X8XqX6X0X:X0X3XqX8XqX3X8X8X8X8X8X",
"8X8X8X8X8X8X3XqX3XqX3XqX3X8X8X8X8X8X8X8X8X:XiXy.- U wXwX:X'.a.r.q.2 } u.>XqXwXs.k | q.a.0X8X8X8X8X8X8X8XqX8X8X:XqX8X8X8X8X8X8X8X",
"8X8X8X8X8XqX8X8X8X8X8XqX8X8X8X8X8X8X8X8X8X8XtXu.H j.8X7XeX0XwX0XpXs.$.t.P.wXwXG.k G ;XwX8X8X8X8X8X8X8X8X8X8XqX8X8X8X8X8X8X8X8X8X",
"8X8X8X3XeX6X0X:XqX3XqX3XqX3X8X8X8X8X8X0X:XqX0Xa.J N.7X9X2X8X8X:XwXG.,.,.y.qXwX$Xz v J.0X8X7X8X8X8XqX:XqX6X0X6X0X:XqX8X8X8X8X8X8X",
":X8X8X0X7XwX:XwX>XwX:X0X:XqX8X8X8X8XqX:X0X:XiXI.c S.rX2X9X3X8X8X0XG.,.} ,.yX>XqXD 0 ~.rX7X8X8X8XqX6X0X:XwX:XwX:X0X:XqX8X8X8X8X8X",
"0X8XqX:XwX:XwX:XwX:XwX:X0X:XqX8X8XqX:XwX:XwX:X6XN N.8XeX2X9X8X2XwXI.,.N m.7XwX2X$.0 $X8X9X7X8X9X:X0X:XwX:XwX:XwX:X0X:XqX8X8XqX3X",
":XqX6X0X:XwX:XwX:XwX:XwX:X0X8X8XqX:X0X>XwX>XiX@Xi h.rX:XeX7X8X8XwXs.m.U ~.yX>XpX%.v -XwX2X8X8X2X0X:XwX:XwX>XwX:XwX:X0X2X8X8X3XqX",
"0X8XqX:XwX:XwX:XwX:XwX:X0X:XqX8X8XqX6XwX:XwX8X@Xr %.;XwX2X9X8X8X8Xl.Z.,.wX2XwX7Xt.v :X7X9X8X8X9X6XwX:XwX:XwX:XwX:XwX:X9X8X8X8X8X",
":XqX3X0X:XwX:XwX:XwX:XwX:X0X:X8X8X8X0X:XwX>XiXP.3 %.0X2X9X7X8X8X7Xh.^.%.=XyX>XiX%.9 $XwX2X8X8X2X0X:XwX:XwX:XwX:XwX:X9X3X8X8X3XqX",
"qX3XqX:XqX:X0X:XwX:X0X:X0X:XqX8X2XqX2XqX:X0X8XI.3 ^ 3XqX2X8X8X8XqXH.T.$.8X:X0XqX,.0 *XqX7XqX8XqX2XqX:X0X:X0X:X0X8XqX:XqX8X8X8X8X",
"3X8X8XqX8XqX8XqX8X0X:XqX8XqX8X8X8X8XqX3X9X:XwXK > I 8X3X8X8X8XqX:Xm.(.N.:XqX3X:XD J 2X7X7XqX8X8XqX8XeX:XqX8XeX:XqX8XqX8X8X8X8X8X",
"8X8X8X8X8X8X8X8X8X8X8X8X8X8X8X8X8X8X8X8X8XqX>X& . : qX8X8X8X7XyXa.o < w.tX:XrXF.X + G.wX7XqX7X8X8X8X8X8X8X8X8X8X8X8X8X8X8X8X8X8X",
"8X8X8X8XqX:XqX3XqX:XqX8X8X3X8X8X8X8X8XqX3XwX#X# @ Y 0X8X8X8X8XwXK O $ =.yX>XtXF.* 6 G.wX8X8X8X8X3XqX8XqX:XqX8XqX:XqX3X8X8X8X8X3X",
"3X8X8XqX8X0X:X0X6X0X3X0X:XqX8X8XqX8XqX2XeX6XwX!.J.8XeX:X9X8X8X7X8X!.M.:X2X0X:XwX:X9XqXqX8X8X8X8XqX8X0X:X0X:XwX:X0X2XqX8X8X8X8X8X",
"qX8X8X:XwX:XwX:XwX:XwX:X0X6XqX8X7XqX:X0X:XwX:XuXqX0X:X0X:XqX8X8X8XqXiX6X0X:XwX:XwX:X9X2XqX3X8XqX:X0X:X0X:XwX:XwX:X0X:X8X8X8X8X8X",
":XqX3X0X:XwX:XwX>XtX:XwX:X0X2X8XeX7XeX:XwX:XwX:XwX:XwX:XeX7XqX8X7XwX:XwX:XwX:XwX:XwX:X0X:X8XqX:X0X6XwX:XwX:XwX:XwX:X0X8X8X8X3XqX",
"0X8X0X:XwX:XwX>XuX>XwX:X0X:XqX8X7XeX6XwX:XwX>XuX>XwX:XwX6XeX8X7XqX6XwX:XwX:XwX:XwX:XwX:X0X8X8XqX6XwX:XwX:XwX:XwX:XwX:X9X8X8XqX3X"
};
